<?xml version="1.0" encoding="UTF-8" standalone="no"?>
<!-- Created with Inkscape (http://www.inkscape.org/) -->

<svg
   xmlns:dc="http://purl.org/dc/elements/1.1/"
   xmlns:cc="http://creativecommons.org/ns#"
   xmlns:rdf="http://www.w3.org/1999/02/22-rdf-syntax-ns#"
   xmlns:svg="http://www.w3.org/2000/svg"
   xmlns="http://www.w3.org/2000/svg"
   xmlns:sodipodi="http://sodipodi.sourceforge.net/DTD/sodipodi-0.dtd"
   xmlns:inkscape="http://www.inkscape.org/namespaces/inkscape"
   width="210mm"
   height="297mm"
   viewBox="0 0 210 297"
   version="1.1"
   id="svg6232"
   inkscape:version="0.92.3 (2405546, 2018-03-11)"
   sodipodi:docname="calibration.svg">
  <defs
     id="defs6226" />
  <sodipodi:namedview
     id="base"
     pagecolor="#ffffff"
     bordercolor="#666666"
     borderopacity="1.0"
     inkscape:pageopacity="0.0"
     inkscape:pageshadow="2"
     inkscape:zoom="1.979899"
     inkscape:cx="133.56695"
     inkscape:cy="989.70182"
     inkscape:document-units="mm"
     inkscape:current-layer="layer1"
     showgrid="false"
     inkscape:window-width="1920"
     inkscape:window-height="1001"
     inkscape:window-x="-9"
     inkscape:window-y="-9"
     inkscape:window-maximized="1" />
  <metadata
     id="metadata6229">
    <rdf:RDF>
      <cc:Work
         rdf:about="">
        <dc:format>image/svg+xml</dc:format>
        <dc:type
           rdf:resource="http://purl.org/dc/dcmitype/StillImage" />
        <dc:title></dc:title>
      </cc:Work>
    </rdf:RDF>
  </metadata>
  <g
     inkscape:label="Layer 1"
     inkscape:groupmode="layer"
     id="layer1">
    <path
       style="color:#000000;font-style:normal;font-variant:normal;font-weight:normal;font-stretch:normal;font-size:medium;line-height:normal;font-family:sans-serif;font-variant-ligatures:normal;font-variant-position:normal;font-variant-caps:normal;font-variant-numeric:normal;font-variant-alternates:normal;font-feature-settings:normal;text-indent:0;text-align:start;text-decoration:none;text-decoration-line:none;text-decoration-style:solid;text-decoration-color:#000000;letter-spacing:normal;word-spacing:normal;text-transform:none;writing-mode:lr-tb;direction:ltr;text-orientation:mixed;dominant-baseline:auto;baseline-shift:baseline;text-anchor:start;white-space:normal;shape-padding:0;clip-rule:nonzero;display:inline;overflow:visible;visibility:visible;opacity:1;isolation:auto;mix-blend-mode:normal;color-interpolation:sRGB;color-interpolation-filters:linearRGB;solid-color:#000000;solid-opacity:1;vector-effect:none;fill:#000000;fill-opacity:1;fill-rule:nonzero;stroke:none;stroke-width:1.31433618;stroke-linecap:round;stroke-linejoin:round;stroke-miterlimit:1.70000005;stroke-dasharray:none;stroke-dashoffset:0;stroke-opacity:1;color-rendering:auto;image-rendering:auto;shape-rendering:auto;text-rendering:auto;enable-background:accumulate"
       d="m 71.240234,2.8125 -7.599609,0.1308594 a 0.65723381,0.65723381 0 0 0 -0.644531,0.6601562 l 0.06836,19.1093754 H 59.148438 V 3.5996094 a 0.65723381,0.65723381 0 0 0 -0.65625,-0.65625 H 53.220703 A 0.65723381,0.65723381 0 0 0 52.5625,3.5996094 V 22.712891 H 48.646484 V 3.5996094 a 0.65723381,0.65723381 0 0 0 -0.65625,-0.65625 H 42.71875 a 0.65723381,0.65723381 0 0 0 -0.658203,0.65625 V 22.712891 H 38.144531 V 3.5996094 a 0.65723381,0.65723381 0 0 0 -0.658203,-0.65625 h -5.271484 a 0.65723381,0.65723381 0 0 0 -0.65625,0.65625 V 22.712891 H 27.640625 V 3.5996094 a 0.65723381,0.65723381 0 0 0 -0.65625,-0.65625 h -5.271484 a 0.65723381,0.65723381 0 0 0 -0.658203,0.65625 V 22.712891 H 17.138672 V 3.5996094 a 0.65723381,0.65723381 0 0 0 -0.65625,-0.65625 h -5.271484 a 0.65723381,0.65723381 0 0 0 -0.658204,0.65625 V 22.712891 H 6.6367188 v -9.226563 a 0.65723381,0.65723381 0 1 0 -1.3144532,0 v 9.884766 a 0.65723381,0.65723381 0 0 0 0.65625,0.65625 h 5.2324224 a 0.65723381,0.65723381 0 0 0 0.65625,-0.65625 V 4.2578125 h 3.957031 V 23.371094 a 0.65723381,0.65723381 0 0 0 0.658203,0.65625 h 5.230469 a 0.65723381,0.65723381 0 0 0 0.65625,-0.65625 V 4.2578125 h 3.958984 V 23.371094 a 0.65723381,0.65723381 0 0 0 0.65625,0.65625 h 5.230469 a 0.65723381,0.65723381 0 0 0 0.658203,-0.65625 V 4.2578125 h 3.957031 V 23.371094 a 0.65723381,0.65723381 0 0 0 0.65625,0.65625 H 42.71875 A 0.65723381,0.65723381 0 0 0 43.375,23.371094 V 4.2578125 h 3.957031 V 23.371094 a 0.65723381,0.65723381 0 0 0 0.658203,0.65625 h 5.230469 a 0.65723381,0.65723381 0 0 0 0.65625,-0.65625 V 4.2578125 h 3.957031 V 23.371094 a 0.65723381,0.65723381 0 0 0 0.658204,0.65625 h 5.230468 a 0.65723381,0.65723381 0 0 0 0.658203,-0.658203 L 64.3125,4.2460938 71.263672,4.1269531 A 0.65733102,0.65733102 0 1 0 71.240234,2.8125 Z"
       id="path5270-4-0-1"
       inkscape:connector-curvature="0" />
    <path
       style="color:#000000;font-style:normal;font-variant:normal;font-weight:normal;font-stretch:normal;font-size:medium;line-height:normal;font-family:sans-serif;font-variant-ligatures:normal;font-variant-position:normal;font-variant-caps:normal;font-variant-numeric:normal;font-variant-alternates:normal;font-feature-settings:normal;text-indent:0;text-align:start;text-decoration:none;text-decoration-line:none;text-decoration-style:solid;text-decoration-color:#000000;letter-spacing:normal;word-spacing:normal;text-transform:none;writing-mode:lr-tb;direction:ltr;text-orientation:mixed;dominant-baseline:auto;baseline-shift:baseline;text-anchor:start;white-space:normal;shape-padding:0;clip-rule:nonzero;display:inline;overflow:visible;visibility:visible;opacity:1;isolation:auto;mix-blend-mode:normal;color-interpolation:sRGB;color-interpolation-filters:linearRGB;solid-color:#000000;solid-opacity:1;vector-effect:none;fill:#000000;fill-opacity:1;fill-rule:nonzero;stroke:none;stroke-width:0.61951298;stroke-linecap:round;stroke-linejoin:round;stroke-miterlimit:1.70000005;stroke-dasharray:none;stroke-dashoffset:0;stroke-opacity:1;color-rendering:auto;image-rendering:auto;shape-rendering:auto;text-rendering:auto;enable-background:accumulate"
       d="m 36.392578,34.423828 -3.582031,0.06055 a 0.30978746,0.30978746 0 0 0 -0.304688,0.310547 l 0.03125,9.009766 h -1.84375 v -9.009766 a 0.30978746,0.30978746 0 0 0 -0.310547,-0.310547 h -2.484374 a 0.30978746,0.30978746 0 0 0 -0.308594,0.310547 v 9.009766 h -1.847656 v -9.009766 a 0.30978746,0.30978746 0 0 0 -0.308594,-0.310547 h -2.484375 a 0.30978746,0.30978746 0 0 0 -0.310547,0.310547 v 9.009766 H 20.792969 V 34.794922 A 0.30978746,0.30978746 0 0 0 20.482422,34.484375 H 17.998047 A 0.30978746,0.30978746 0 0 0 17.6875,34.794922 v 9.009766 h -1.845703 v -9.009766 a 0.30978746,0.30978746 0 0 0 -0.308594,-0.310547 h -2.486328 a 0.30978746,0.30978746 0 0 0 -0.308594,0.310547 v 9.009766 H 10.892578 V 34.794922 A 0.30978746,0.30978746 0 0 0 10.582031,34.484375 H 8.0976562 a 0.30978746,0.30978746 0 0 0 -0.3105468,0.310547 v 9.009766 H 5.9414062 v -4.351563 a 0.30978746,0.30978746 0 1 0 -0.6191406,0 v 4.660156 a 0.30978746,0.30978746 0 0 0 0.3085938,0.310547 H 8.0976562 A 0.30978746,0.30978746 0 0 0 8.40625,44.113281 v -9.009765 h 1.865234 v 9.009765 a 0.30978746,0.30978746 0 0 0 0.310547,0.310547 h 2.464844 a 0.30978746,0.30978746 0 0 0 0.310547,-0.310547 v -9.009765 h 1.865234 v 9.009765 a 0.30978746,0.30978746 0 0 0 0.310547,0.310547 h 2.464844 a 0.30978746,0.30978746 0 0 0 0.310547,-0.310547 v -9.009765 h 1.865234 v 9.009765 a 0.30978746,0.30978746 0 0 0 0.308594,0.310547 h 2.466797 a 0.30978746,0.30978746 0 0 0 0.308593,-0.310547 v -9.009765 h 1.865235 v 9.009765 a 0.30978746,0.30978746 0 0 0 0.310547,0.310547 h 2.464844 a 0.30978746,0.30978746 0 0 0 0.310546,-0.310547 v -9.009765 h 1.865235 v 9.009765 a 0.30978746,0.30978746 0 0 0 0.308593,0.310547 h 2.466797 a 0.30978746,0.30978746 0 0 0 0.308594,-0.310547 l -0.03125,-9.013672 3.277344,-0.05664 a 0.30978746,0.30978746 0 1 0 -0.01172,-0.619141 z"
       id="path5270-4-0-1-2"
       inkscape:connector-curvature="0" />
    <path
       style="color:#000000;font-style:normal;font-variant:normal;font-weight:normal;font-stretch:normal;font-size:medium;line-height:normal;font-family:sans-serif;font-variant-ligatures:normal;font-variant-position:normal;font-variant-caps:normal;font-variant-numeric:normal;font-variant-alternates:normal;font-feature-settings:normal;text-indent:0;text-align:start;text-decoration:none;text-decoration-line:none;text-decoration-style:solid;text-decoration-color:#000000;letter-spacing:normal;word-spacing:normal;text-transform:none;writing-mode:lr-tb;direction:ltr;text-orientation:mixed;dominant-baseline:auto;baseline-shift:baseline;text-anchor:start;white-space:normal;shape-padding:0;clip-rule:nonzero;display:inline;overflow:visible;visibility:visible;opacity:1;isolation:auto;mix-blend-mode:normal;color-interpolation:sRGB;color-interpolation-filters:linearRGB;solid-color:#000000;solid-opacity:1;vector-effect:none;fill:#000000;fill-opacity:1;fill-rule:nonzero;stroke:none;stroke-width:0.30975559;stroke-linecap:round;stroke-linejoin:round;stroke-miterlimit:1.70000005;stroke-dasharray:none;stroke-dashoffset:0;stroke-opacity:1;color-rendering:auto;image-rendering:auto;shape-rendering:auto;text-rendering:auto;enable-background:accumulate"
       d="m 20.939453,53.470703 -1.792969,0.03125 a 0.15489328,0.15489328 0 0 0 -0.15039,0.154297 l 0.01563,4.503906 H 18.087891 V 53.65625 a 0.15489328,0.15489328 0 0 0 -0.154297,-0.154297 h -1.242188 a 0.15489328,0.15489328 0 0 0 -0.154297,0.154297 v 4.503906 H 15.613281 V 53.65625 a 0.15489328,0.15489328 0 0 0 -0.154297,-0.154297 h -1.242187 a 0.15489328,0.15489328 0 0 0 -0.15625,0.154297 v 4.503906 H 13.138672 V 53.65625 a 0.15489328,0.15489328 0 0 0 -0.154297,-0.154297 h -1.244141 a 0.15489328,0.15489328 0 0 0 -0.154296,0.154297 v 4.503906 H 10.664062 V 53.65625 a 0.15489328,0.15489328 0 0 0 -0.15625,-0.154297 H 9.265625 A 0.15489328,0.15489328 0 0 0 9.1113281,53.65625 v 4.503906 H 8.1875 V 53.65625 A 0.15489328,0.15489328 0 0 0 8.0332031,53.501953 H 6.7910156 A 0.15489328,0.15489328 0 0 0 6.6367188,53.65625 v 4.503906 H 5.7128906 v -2.173828 a 0.1552734,0.1552734 0 1 0 -0.3105468,0 v 2.328125 a 0.15489328,0.15489328 0 0 0 0.15625,0.15625 h 1.2324218 a 0.15489328,0.15489328 0 0 0 0.1542969,-0.15625 v -4.503906 h 0.9335937 v 4.503906 a 0.15489328,0.15489328 0 0 0 0.1542969,0.15625 H 9.265625 a 0.15489328,0.15489328 0 0 0 0.1542969,-0.15625 v -4.503906 h 0.9335941 v 4.503906 a 0.15489328,0.15489328 0 0 0 0.154296,0.15625 h 1.232422 a 0.15489328,0.15489328 0 0 0 0.15625,-0.15625 v -4.503906 h 0.931641 v 4.503906 a 0.15489328,0.15489328 0 0 0 0.15625,0.15625 h 1.232422 a 0.15489328,0.15489328 0 0 0 0.154297,-0.15625 v -4.503906 h 0.933594 v 4.503906 a 0.15489328,0.15489328 0 0 0 0.154296,0.15625 h 1.232422 a 0.15489328,0.15489328 0 0 0 0.154297,-0.15625 v -4.503906 h 0.933594 v 4.503906 a 0.15489328,0.15489328 0 0 0 0.154297,0.15625 h 1.232422 a 0.15489328,0.15489328 0 0 0 0.15625,-0.15625 l -0.01758,-4.505859 1.638671,-0.0293 a 0.15489328,0.15489328 0 1 0 -0.0039,-0.308594 z"
       id="path5270-4-0-1-2-5"
       inkscape:connector-curvature="0" />
    <path
       style="color:#000000;font-style:normal;font-variant:normal;font-weight:normal;font-stretch:normal;font-size:medium;line-height:normal;font-family:sans-serif;font-variant-ligatures:normal;font-variant-position:normal;font-variant-caps:normal;font-variant-numeric:normal;font-variant-alternates:normal;font-feature-settings:normal;text-indent:0;text-align:start;text-decoration:none;text-decoration-line:none;text-decoration-style:solid;text-decoration-color:#000000;letter-spacing:normal;word-spacing:normal;text-transform:none;writing-mode:lr-tb;direction:ltr;text-orientation:mixed;dominant-baseline:auto;baseline-shift:baseline;text-anchor:start;white-space:normal;shape-padding:0;clip-rule:nonzero;display:inline;overflow:visible;visibility:visible;opacity:1;isolation:auto;mix-blend-mode:normal;color-interpolation:sRGB;color-interpolation-filters:linearRGB;solid-color:#000000;solid-opacity:1;vector-effect:none;fill:#000000;fill-opacity:1;fill-rule:nonzero;stroke:none;stroke-width:0.12390223;stroke-linecap:round;stroke-linejoin:round;stroke-miterlimit:1.70000005;stroke-dasharray:none;stroke-dashoffset:0;stroke-opacity:1;color-rendering:auto;image-rendering:auto;shape-rendering:auto;text-rendering:auto;enable-background:accumulate"
       d="m 12.751953,66.675781 -0.716797,0.01172 a 0.06195731,0.06195731 0 0 0 -0.06055,0.0625 l 0.0059,1.800781 H 11.611328 V 66.75 a 0.06195731,0.06195731 0 0 0 -0.0625,-0.0625 h -0.496094 a 0.06195731,0.06195731 0 0 0 -0.0625,0.0625 v 1.800781 h -0.36914 V 66.75 a 0.06195731,0.06195731 0 0 0 -0.0625,-0.0625 H 10.0625 A 0.06195731,0.06195731 0 0 0 10,66.75 v 1.800781 H 9.6308594 V 66.75 a 0.06195731,0.06195731 0 0 0 -0.0625,-0.0625 H 9.0722656 a 0.06195731,0.06195731 0 0 0 -0.0625,0.0625 v 1.800781 H 8.640625 V 66.75 a 0.06195731,0.06195731 0 0 0 -0.0625,-0.0625 H 8.0820312 a 0.06195731,0.06195731 0 0 0 -0.0625,0.0625 v 1.800781 H 7.6503906 V 66.75 A 0.06195731,0.06195731 0 0 0 7.5898438,66.6875 H 7.0917969 a 0.06195731,0.06195731 0 0 0 -0.0625,0.0625 v 1.800781 H 6.6601562 v -0.86914 a 0.06195731,0.06195731 0 1 0 -0.1230468,0 v 0.93164 a 0.06195731,0.06195731 0 0 0 0.0625,0.0625 h 0.4921875 a 0.06195731,0.06195731 0 0 0 0.0625,-0.0625 V 66.8125 h 0.3730469 v 1.800781 a 0.06195731,0.06195731 0 0 0 0.0625,0.0625 h 0.4921874 a 0.06195731,0.06195731 0 0 0 0.0625,-0.0625 V 66.8125 h 0.3730469 v 1.800781 a 0.06195731,0.06195731 0 0 0 0.060547,0.0625 h 0.4941406 a 0.06195731,0.06195731 0 0 0 0.0625,-0.0625 V 66.8125 h 0.3730469 v 1.800781 a 0.06195731,0.06195731 0 0 0 0.060547,0.0625 H 10.0625 a 0.06195731,0.06195731 0 0 0 0.0625,-0.0625 V 66.8125 h 0.373047 v 1.800781 a 0.06195731,0.06195731 0 0 0 0.06055,0.0625 h 0.49414 a 0.06195731,0.06195731 0 0 0 0.0625,-0.0625 V 66.8125 h 0.373047 v 1.800781 a 0.06195731,0.06195731 0 0 0 0.06055,0.0625 h 0.494141 a 0.06195731,0.06195731 0 0 0 0.06055,-0.0625 l -0.0059,-1.802734 0.65625,-0.01172 a 0.06195731,0.06195731 0 1 0 -0.002,-0.123047 z"
       id="path5270-4-0-1-2-9"
       inkscape:connector-curvature="0" />
  </g>
</svg>
