<?xml version="1.0" encoding="UTF-8" standalone="no"?>
<!-- Created with Inkscape (http://www.inkscape.org/) -->

<svg
   xmlns:dc="http://purl.org/dc/elements/1.1/"
   xmlns:cc="http://creativecommons.org/ns#"
   xmlns:rdf="http://www.w3.org/1999/02/22-rdf-syntax-ns#"
   xmlns:svg="http://www.w3.org/2000/svg"
   xmlns="http://www.w3.org/2000/svg"
   xmlns:sodipodi="http://sodipodi.sourceforge.net/DTD/sodipodi-0.dtd"
   xmlns:inkscape="http://www.inkscape.org/namespaces/inkscape"
   width="210mm"
   height="297mm"
   viewBox="0 0 210 297"
   version="1.1"
   id="svg6232"
   sodipodi:docname="microfluidics 3.svg"
   inkscape:version="0.92.3 (2405546, 2018-03-11)">
  <defs
     id="defs6226" />
  <sodipodi:namedview
     id="base"
     pagecolor="#ffffff"
     bordercolor="#666666"
     borderopacity="1.0"
     inkscape:pageopacity="0.0"
     inkscape:pageshadow="2"
     inkscape:zoom="0.98994949"
     inkscape:cx="284.32396"
     inkscape:cy="842.14248"
     inkscape:document-units="mm"
     inkscape:current-layer="layer1"
     showgrid="false"
     inkscape:window-width="1920"
     inkscape:window-height="1001"
     inkscape:window-x="-9"
     inkscape:window-y="-9"
     inkscape:window-maximized="1"
     inkscape:measure-start="245.179,900"
     inkscape:measure-end="245.357,896.429" />
  <metadata
     id="metadata6229">
    <rdf:RDF>
      <cc:Work
         rdf:about="">
        <dc:format>image/svg+xml</dc:format>
        <dc:type
           rdf:resource="http://purl.org/dc/dcmitype/StillImage" />
        <dc:title></dc:title>
      </cc:Work>
    </rdf:RDF>
  </metadata>
  <g
     inkscape:label="Layer 1"
     inkscape:groupmode="layer"
     id="layer1">
    <path
       style="fill:none;stroke:#000000;stroke-width:1.31433618;stroke-linecap:round;stroke-linejoin:round;stroke-miterlimit:1.70000005;stroke-dasharray:none;stroke-opacity:1"
       d="m 8.9192181,93.131941 v 9.885319 H 14.150154 V 83.246615 h 5.271601 v 19.770645 h 5.230933 V 83.246615 h 5.271601 v 19.770645 h 5.230933 V 83.246615 h 5.271598 v 19.770645 h 5.230939 V 83.246615 h 5.271596 v 19.770645 h 5.230939 V 83.246615 h 5.271596 v 19.770645 h 5.230937 l -0.07028,-19.770645 v 0 0 l 7.599768,-0.130392"
       id="path5270-4-0-1"
       inkscape:connector-curvature="0"
       sodipodi:nodetypes="ccccccccccccccccccccccccccc" />
    <path
       style="fill:none;stroke:#000000;stroke-width:0.61951298;stroke-linecap:round;stroke-linejoin:round;stroke-miterlimit:1.70000005;stroke-dasharray:none;stroke-opacity:1"
       d="m 8.5717772,119.10034 v 4.65946 h 2.4656048 v -9.31891 h 2.484771 v 9.31891 h 2.465602 v -9.31891 h 2.484773 v 9.31891 h 2.465603 v -9.31891 h 2.48477 v 9.31891 h 2.465606 v -9.31891 h 2.484769 v 9.31891 h 2.465606 v -9.31891 h 2.484769 v 9.31891 h 2.465605 l -0.03312,-9.31891 v 0 0 l 3.582154,-0.0615"
       id="path5270-4-0-1-2"
       inkscape:connector-curvature="0"
       sodipodi:nodetypes="ccccccccccccccccccccccccccc" />
    <path
       style="fill:none;stroke:#000000;stroke-width:0.30975559;stroke-linecap:round;stroke-linejoin:round;stroke-miterlimit:1.70000005;stroke-dasharray:none;stroke-opacity:1"
       d="m 8.4979261,135.63192 v 2.32972 h 1.232799 v -4.65944 h 1.2423819 v 4.65944 h 1.232797 v -4.65944 h 1.242382 v 4.65944 h 1.232798 v -4.65944 h 1.242382 v 4.65944 h 1.2328 v -4.65944 h 1.242381 v 4.65944 h 1.232799 v -4.65944 h 1.242381 v 4.65944 h 1.232799 l -0.01656,-4.65944 v 0 0 l 1.791072,-0.0307"
       id="path5270-4-0-1-2-5"
       inkscape:connector-curvature="0"
       sodipodi:nodetypes="ccccccccccccccccccccccccccc" />
    <path
       style="fill:none;stroke:#000000;stroke-width:0.12390223;stroke-linecap:round;stroke-linejoin:round;stroke-miterlimit:1.70000005;stroke-dasharray:none;stroke-opacity:1"
       d="m 9.5389181,147.32804 v 0.93189 h 0.4931189 v -1.86378 h 0.496953 v 1.86378 h 0.493119 v -1.86378 h 0.496953 v 1.86378 h 0.493119 v -1.86378 h 0.496953 v 1.86378 h 0.493121 v -1.86378 h 0.496951 v 1.86378 h 0.49312 v -1.86378 h 0.496952 v 1.86378 h 0.49312 l -0.0066,-1.86378 v 0 0 l 0.716429,-0.0123"
       id="path5270-4-0-1-2-9"
       inkscape:connector-curvature="0"
       sodipodi:nodetypes="ccccccccccccccccccccccccccc" />
    <path
       style="fill:#000000;stroke-width:0.0597187"
       d="m 21.209988,57.508797 c 0.70971,-0.191131 1.28575,-0.611933 1.6906,-1.234953 0.31723,-0.488203 0.43584,-0.978771 0.40533,-1.676394 -0.0222,-0.505116 -0.0484,-0.613802 -0.24435,-1.010332 -0.38041,-0.769698 -1.05522,-1.321196 -1.85944,-1.519664 l -0.39437,-0.09732 v -0.920982 c 0,-0.520656 -0.0269,-0.971197 -0.0618,-1.036499 -0.0601,-0.112446 -0.16859,-0.1155 -4.09073,-0.1155 h -4.02891 V 49.09095 48.284741 h 3.99688 c 3.55391,0 4.00729,-0.0104 4.09074,-0.09384 0.0788,-0.07881 0.0938,-0.277912 0.0938,-1.24268 0,-0.825409 -0.0209,-1.177251 -0.0746,-1.249789 -0.0686,-0.09278 -0.3985,-0.102163 -4.0758,-0.11592 l -4.00114,-0.015 -0.0166,-0.791272 -0.0166,-0.791266 h 3.97302 c 3.89339,0 3.97541,-0.002 4.09246,-0.119433 0.11108,-0.111055 0.11946,-0.199058 0.11946,-1.254092 0,-1.055033 -0.008,-1.143039 -0.11946,-1.254092 -0.11703,-0.117041 -0.19907,-0.119447 -4.09073,-0.119447 h -3.9713 v -0.806209 -0.806195 h 4.02892 c 3.92214,0 4.03054,-0.0027 4.09072,-0.115514 0.0363,-0.06799 0.0618,-0.582119 0.0618,-1.249822 0,-0.95158 -0.0151,-1.149435 -0.0938,-1.228168 -0.0835,-0.08345 -0.53682,-0.09384 -4.09073,-0.09384 h -3.9969 v -0.806203 -0.806202 h 3.9919 c 3.79145,0 3.99687,-0.0061 4.09073,-0.109217 0.0847,-0.09355 0.0988,-0.271778 0.0988,-1.242679 0,-0.813116 -0.0211,-1.161999 -0.0746,-1.234429 -0.0687,-0.09278 -0.39851,-0.102163 -4.0758,-0.115919 l -4.00115,-0.015 V 31.80231 30.996109 l 4.00115,-0.015 c 3.67729,-0.01378 4.00719,-0.02314 4.0758,-0.115919 0.0537,-0.0725 0.0746,-0.423378 0.0746,-1.244799 0,-1.032297 -0.0108,-1.153477 -0.10919,-1.24268 -0.0993,-0.08989 -0.46969,-0.09883 -4.09074,-0.09883 h -3.98153 V 27.47267 26.666468 h 1.96623 1.96622 l 1.6317,-1.552684 c 1.26592,-1.204615 1.66611,-1.552691 1.78522,-1.552691 0.51444,0 1.37282,-0.425865 1.80986,-0.89792 1.52608,-1.648344 0.6084,-4.292586 -1.61974,-4.667159 -1.83463,-0.30843 -3.48197,1.33037 -3.19579,3.179218 0.16666,1.076723 0.8912,1.901163 2.01636,2.294365 0.10392,0.03631 0.0519,0.105027 -0.40061,0.52944 -0.28603,0.268234 -0.88559,0.835181 -1.33235,1.259896 l -0.8123,0.7722 -1.22063,-1.219545 c -0.67135,-0.670744 -1.22064,-1.237804 -1.22064,-1.260133 0,-0.02232 0.0873,-0.05972 0.1941,-0.08313 0.65623,-0.143851 1.49416,-0.82888 1.79394,-1.466595 0.81238,-1.728191 -0.21224,-3.689619 -2.09254,-4.005716 -1.49648,-0.251576 -2.93416,0.796006 -3.19127,2.325341 -0.24497,1.457268 0.76207,2.897694 2.2275,3.186077 0.33219,0.06536 0.34624,0.07709 1.61188,1.34376 l 1.27678,1.277806 h -1.77272 c -1.76419,0 -1.77317,5.71e-4 -1.86569,0.13273 -0.13817,0.197271 -0.13742,2.322477 6.6e-4,2.460773 0.0834,0.08345 0.53683,0.09384 4.09074,0.09384 h 3.99687 v 0.804964 0.804971 l -4.00598,0.0162 c -3.88673,0.01566 -4.00852,0.01964 -4.09073,0.132082 -0.11487,0.157134 -0.12365,2.286914 -0.009,2.44053 0.0686,0.09278 0.39851,0.102176 4.0758,0.115919 l 4.00115,0.015 0.0166,0.821139 0.0166,0.821125 h -3.99859 c -3.55543,0 -4.00896,0.01041 -4.09241,0.09384 -0.1383,0.138303 -0.13905,2.263502 -6.6e-4,2.460778 l 0.093,0.132717 h 3.99778 3.99777 v 0.806201 0.806209 h -3.9713 c -3.89167,0 -3.97368,0.002 -4.09074,0.119433 -0.11094,0.110973 -0.11946,0.199066 -0.11946,1.24268 0,0.804931 0.0211,1.15185 0.0746,1.224199 0.0686,0.09278 0.39851,0.102176 4.0758,0.115919 l 4.00115,0.01493 v 0.806202 0.806202 l -4.00115,0.015 c -3.67729,0.01378 -4.00719,0.02314 -4.0758,0.11592 -0.0535,0.07235 -0.0746,0.419261 -0.0746,1.224198 0,1.043621 0.008,1.131708 0.11946,1.24268 0.11703,0.117041 0.19907,0.119447 4.09074,0.119447 h 3.9713 v 0.806202 0.806201 h -3.99777 -3.99777 l -0.093,0.13273 c -0.13818,0.197277 -0.13742,2.322476 6.6e-4,2.460767 0.0834,0.08345 0.53683,0.09385 4.09074,0.09385 h 3.99688 v 0.772113 0.772105 l -0.32662,0.0678 c -1.41085,0.292896 -2.40119,1.723135 -2.18154,3.150541 0.24941,1.620737 1.90117,2.72816 3.44787,2.311623 z"
       id="path6865-3"
       inkscape:connector-curvature="0"
       sodipodi:nodetypes="ccccccscscccscscccccscscscccscscscccscscccccccscscccccssscccccccscccccccsccsccccccccccscccccccscscccccccscscccccccsccccccc" />
    <path
       style="fill:#000000;stroke-width:0.05109527"
       d="m 53.147046,53.678948 c -1.04714,-0.246797 -1.69258,-1.345626 -1.39389,-2.373075 0.0836,-0.287628 0.0833,-0.302817 -0.007,-0.368838 -0.0516,-0.03787 -0.59966,-0.360912 -1.21791,-0.717868 l -1.1241,-0.649013 -4.18981,-0.02934 c -4.06002,-0.02843 -4.20326,-0.03272 -4.62411,-0.138666 -0.85811,-0.216016 -2.24114,-0.723131 -2.98906,-1.09599 -3.362529,-1.676348 -5.961936,-4.559303 -7.206438,-7.992525 -0.307703,-0.848878 -0.554072,-1.8189 -0.694063,-2.7327 -0.135623,-0.885332 -0.163277,-2.802999 -0.05254,-3.645931 0.297013,-2.261501 1.084755,-4.387029 2.303963,-6.216687 0.609812,-0.915133 1.028044,-1.427074 1.790272,-2.191399 2.114926,-2.120755 4.663296,-3.399523 7.700946,-3.86432 0.79258,-0.121275 2.74493,-0.120557 3.54116,0.0013 3.78061,0.578603 6.90431,2.4077 9.07602,5.314508 1.83967,2.462365 2.74627,5.615333 2.47043,8.591642 -0.2803,3.024542 -1.51105,5.735853 -3.56399,7.851438 -1.95202,2.011574 -4.36639,3.242844 -7.11384,3.627882 -0.79263,0.111083 -2.54114,0.08386 -3.34674,-0.05211 -2.17139,-0.366477 -4.11257,-1.233111 -5.77374,-2.577683 -0.56591,-0.458055 -1.51636,-1.447345 -1.94868,-2.02832 -2.235708,-3.004434 -2.834215,-6.760631 -1.633977,-10.254672 1.330337,-3.872756 4.569257,-6.623288 8.468807,-7.191827 0.70972,-0.103474 2.08741,-0.103474 2.79712,0 2.91466,0.424945 5.47623,2.049585 7.03023,4.458813 0.55766,0.864563 1.04163,2.081407 1.25604,3.158053 0.14191,0.712542 0.18803,1.923181 0.10164,2.667515 -0.078,0.672403 -0.34327,1.726343 -0.58332,2.318003 -1.02887,2.535918 -3.1024,4.412807 -5.54984,5.023544 -0.79615,0.198669 -1.27022,0.246049 -2.14091,0.213972 -1.45794,-0.05372 -2.65435,-0.442129 -3.87323,-1.257421 -2.79141,-1.867144 -3.61097,-5.443963 -1.79657,-7.840788 0.52591,-0.694738 1.36059,-1.238256 2.09068,-1.361403 1.1845,-0.199792 2.25361,0.587801 2.80962,2.069803 0.0844,0.224819 0.17252,0.443252 0.19595,0.485405 0.0403,0.07244 2.23225,1.372176 2.32265,1.377207 0.0234,0.0013 0.13833,-0.07534 0.25548,-0.170307 0.43388,-0.351769 0.6165,-0.414388 1.20933,-0.41467 0.47584,-2.11e-4 0.56964,0.01527 0.82957,0.137099 0.37389,0.175229 0.74468,0.546021 0.93631,0.936299 0.13724,0.279531 0.1502,0.3522 0.1502,0.84242 0,0.491756 -0.0125,0.561121 -0.1495,0.831707 -0.28609,0.564954 -0.87614,0.974967 -1.49638,1.039793 -0.79967,0.08358 -1.5888,-0.380466 -1.94714,-1.145023 -0.11992,-0.255857 -0.13694,-0.355678 -0.13694,-0.803233 0,-0.452987 0.0158,-0.54291 0.13867,-0.791265 0.0763,-0.15411 0.12226,-0.295888 0.10219,-0.315065 -0.0391,-0.03741 -1.83351,-1.078374 -2.06751,-1.199424 l -0.14052,-0.07269 0.001,0.780515 10e-4,0.780514 0.25158,0.170626 c 0.29736,0.20168 0.46865,0.414184 0.65589,0.8137 0.11886,0.253613 0.13734,0.358388 0.13734,0.778463 0,0.41884 -0.0186,0.525168 -0.13593,0.775377 -0.19031,0.405984 -0.50428,0.726674 -0.90417,0.923542 -0.305,0.150145 -0.38148,0.166056 -0.79824,0.166056 -0.41032,0 -0.4974,-0.01742 -0.79305,-0.158727 -0.39806,-0.190237 -0.75173,-0.536502 -0.95239,-0.932437 -0.13323,-0.262887 -0.14616,-0.335884 -0.14616,-0.824908 0,-0.474652 0.0157,-0.570055 0.13643,-0.827565 0.17428,-0.371808 0.53017,-0.727388 0.90098,-0.900178 0.22781,-0.106161 0.38821,-0.139687 0.73815,-0.154292 l 0.44708,-0.01866 v -0.7013 c 0,-0.602423 -0.017,-0.75119 -0.12038,-1.055143 -0.15713,-0.461897 -0.332,-0.802137 -0.58605,-1.140243 -0.26101,-0.347369 -0.49066,-0.536519 -0.85254,-0.702192 -0.24897,-0.113984 -0.34124,-0.128796 -0.705,-0.113177 -0.56636,0.02432 -1.04955,0.251 -1.55857,0.731181 -1.40171,1.322302 -1.70672,3.405601 -0.77829,5.315877 1.28114,2.635976 4.60805,4.056837 7.64898,3.266736 2.11727,-0.550112 3.89482,-2.025763 4.91985,-4.084261 1.22626,-2.462613 1.2159,-5.192707 -0.029,-7.636238 -1.73172,-3.399209 -5.57657,-5.43371 -9.46107,-5.00635 -4.12925,0.454287 -7.5956,3.589325 -8.639888,7.814085 -0.769961,3.114938 -0.107452,6.323188 1.844838,8.933733 0.20291,0.27134 0.657,0.782843 1.00907,1.136676 2.66216,2.675446 6.47304,3.879372 10.16768,3.212154 4.77643,-0.862576 8.60878,-4.776644 9.52828,-9.731444 0.20773,-1.119417 0.25034,-2.659366 0.10463,-3.781048 -0.28655,-2.205734 -1.19587,-4.31958 -2.61558,-6.080337 -0.53202,-0.659774 -1.58795,-1.68511 -2.24027,-2.175324 -4.72042,-3.547404 -11.02808,-3.569195 -15.68421,-0.05419 -2.304601,1.739798 -4.088606,4.370473 -4.904457,7.232086 -0.593986,2.083417 -0.666051,4.465181 -0.198807,6.570506 0.450703,2.03076 1.371448,3.941996 2.707684,5.620478 0.437362,0.549376 1.54749,1.658937 2.11456,2.11348 1.3678,1.09637 2.75755,1.839424 4.64906,2.4857 1.14081,0.389782 0.93343,0.374966 5.52658,0.394829 l 4.12086,0.01782 1.25061,-0.721513 1.2506,-0.721511 -0.0494,-0.213224 c -0.13813,-0.596699 0.0934,-1.293876 0.57889,-1.743386 0.40274,-0.372858 0.75102,-0.506153 1.32254,-0.506153 0.60601,0 0.94612,0.137714 1.35849,0.550082 0.4032,0.403199 0.5481,0.752715 0.55261,1.33295 0.003,0.356118 -0.0176,0.452854 -0.15812,0.751136 -0.32106,0.681446 -0.88554,1.065037 -1.62439,1.103814 -0.82791,0.04346 -1.35935,-0.241876 -1.86584,-1.001782 l -0.0766,-0.114992 -1.16615,0.672086 c -0.64137,0.369647 -1.14721,0.689668 -1.12409,0.711164 0.0632,0.05876 2.35741,1.378599 2.39632,1.378599 0.0185,0 0.11617,-0.0724 0.21696,-0.160893 0.10078,-0.08849 0.31075,-0.220699 0.4666,-0.293797 0.24603,-0.115393 0.35069,-0.132905 0.79431,-0.132905 0.45602,0 0.54546,0.01593 0.83194,0.148224 1.08183,0.499576 1.44367,1.881378 0.7372,2.815301 -0.4617,0.61035 -1.28138,0.909743 -2.01643,0.736503 z"
       id="path7441-7"
       inkscape:connector-curvature="0" />
  </g>
</svg>
