<?xml version="1.0" encoding="UTF-8" standalone="no"?>
<!-- Created with Inkscape (http://www.inkscape.org/) -->

<svg
   xmlns:dc="http://purl.org/dc/elements/1.1/"
   xmlns:cc="http://creativecommons.org/ns#"
   xmlns:rdf="http://www.w3.org/1999/02/22-rdf-syntax-ns#"
   xmlns:svg="http://www.w3.org/2000/svg"
   xmlns="http://www.w3.org/2000/svg"
   xmlns:sodipodi="http://sodipodi.sourceforge.net/DTD/sodipodi-0.dtd"
   xmlns:inkscape="http://www.inkscape.org/namespaces/inkscape"
   width="297mm"
   height="210mm"
   viewBox="0 0 297 210"
   version="1.1"
   id="svg5596"
   inkscape:version="0.92.3 (2405546, 2018-03-11)"
   sodipodi:docname="microfluidics 1.svg">
  <defs
     id="defs5590" />
  <sodipodi:namedview
     id="base"
     pagecolor="#ffffff"
     bordercolor="#666666"
     borderopacity="1.0"
     inkscape:pageopacity="0.0"
     inkscape:pageshadow="2"
     inkscape:zoom="0.7"
     inkscape:cx="354.28571"
     inkscape:cy="331.42857"
     inkscape:document-units="mm"
     inkscape:current-layer="layer1"
     showgrid="false"
     inkscape:window-width="1920"
     inkscape:window-height="1001"
     inkscape:window-x="-9"
     inkscape:window-y="-9"
     inkscape:window-maximized="1" />
  <metadata
     id="metadata5593">
    <rdf:RDF>
      <cc:Work
         rdf:about="">
        <dc:format>image/svg+xml</dc:format>
        <dc:type
           rdf:resource="http://purl.org/dc/dcmitype/StillImage" />
        <dc:title></dc:title>
      </cc:Work>
    </rdf:RDF>
  </metadata>
  <g
     inkscape:label="Layer 1"
     inkscape:groupmode="layer"
     id="layer1"
     transform="translate(0,-87)">
    <path
       style="fill:#000000;stroke-width:0.26458332"
       d="m 175.20828,281.18803 c -6.4154,-1.67471 -10.45109,-8.3561 -8.95834,-14.83121 1.01479,-4.40185 5.0304,-8.35422 9.45112,-9.3023 l 1.30339,-0.27953 0.1431,-4.33214 c 0.0787,-2.38267 0.22221,-4.46013 0.31889,-4.61658 0.12257,-0.19832 5.57856,-0.28444 18.01956,-0.28444 h 17.84376 v -3.57188 -3.57187 h -17.69469 c -14.70559,0 -17.74577,-0.0616 -17.99713,-0.36443 -0.21087,-0.25408 -0.28076,-2.03663 -0.23083,-5.88698 l 0.0716,-5.52255 17.92552,-0.068 17.92552,-0.068 v -3.57003 -3.57002 h -17.31298 c -10.60874,0 -17.5758,-0.0999 -17.99167,-0.25804 l -0.67868,-0.25803 v -5.55349 c 0,-5.21978 0.0307,-5.56995 0.51177,-5.82738 0.33796,-0.18088 6.44831,-0.27389 17.99167,-0.27389 h 17.47989 v -3.57188 -3.57187 h -17.67417 c -13.39379,0 -17.75106,-0.0769 -17.99166,-0.3175 -0.44877,-0.44877 -0.44877,-10.82249 0,-11.27126 0.2406,-0.2406 4.59787,-0.3175 17.99166,-0.3175 h 17.67417 v -3.57187 -3.57188 h -17.47989 c -11.54336,0 -17.65371,-0.093 -17.99167,-0.27389 -0.48095,-0.25739 -0.51177,-0.60742 -0.51177,-5.81152 0,-5.20411 0.0308,-5.55413 0.51177,-5.81153 0.33796,-0.18087 6.44831,-0.27389 17.99167,-0.27389 h 17.47989 v -3.57187 -3.57188 h -17.67417 c -13.39379,0 -17.75106,-0.0769 -17.99166,-0.3175 -0.22589,-0.22588 -0.3175,-1.85208 -0.3175,-5.63562 0,-3.78355 0.0916,-5.40975 0.3175,-5.63563 0.2406,-0.24061 4.59787,-0.3175 17.99166,-0.3175 h 17.67417 v -3.57187 -3.57188 h -8.60282 -8.60281 l -2.44354,-2.28456 c -1.34395,-1.2565 -4.58914,-4.34074 -7.21153,-6.85386 -4.5699,-4.37946 -4.82273,-4.57728 -6.08542,-4.76142 -5.57797,-0.81345 -9.8159,-4.9081 -10.75642,-10.39277 -0.91941,-5.3616 1.97906,-10.77649 7.06001,-13.18942 1.74296,-0.82773 2.35043,-0.97556 4.46302,-1.08606 3.88352,-0.20313 6.51844,0.74741 9.22309,3.3272 2.62774,2.50645 3.90974,5.47444 3.90328,9.03658 -0.01,5.23936 -3.39421,10.02566 -8.25297,11.67052 l -1.29068,0.43693 5.87511,5.61366 5.87511,5.61366 5.5105,-5.50581 5.5105,-5.50582 -1.2544,-0.41232 c -2.24466,-0.73782 -3.82616,-1.68576 -5.34757,-3.20531 -6.10223,-6.09471 -4.28943,-16.25258 3.56626,-19.98323 3.42046,-1.62437 7.62255,-1.53602 11.09048,0.23319 1.48189,0.75601 3.99579,3.22952 4.8978,4.81912 4.09635,7.21894 0.0212,16.48667 -8.03777,18.27963 l -1.90372,0.42353 -5.66805,5.67266 -5.66806,5.67265 h 7.94843 c 5.82933,0 8.03307,0.0847 8.26592,0.3175 0.22548,0.22549 0.3175,1.83025 0.3175,5.53735 0,4.39254 -0.0659,5.28575 -0.41578,5.63563 -0.36963,0.36963 -2.36635,0.41577 -17.99166,0.41577 h -17.57589 v 3.57188 3.57187 h 17.57589 c 15.62531,0 17.62203,0.0461 17.99166,0.41578 0.34988,0.34987 0.41578,1.24308 0.41578,5.63562 0,3.70711 -0.092,5.31187 -0.3175,5.53735 -0.24061,0.24061 -4.59787,0.3175 -17.99167,0.3175 h -17.67416 v 3.70417 3.70416 h 17.67416 c 13.3938,0 17.75106,0.0769 17.99167,0.3175 0.22548,0.22549 0.3175,1.83025 0.3175,5.53736 0,4.39254 -0.0659,5.28574 -0.41578,5.63562 -0.36963,0.36963 -2.36635,0.41577 -17.99166,0.41577 h -17.57589 v 3.57188 3.57188 h 17.57589 c 15.62531,0 17.62203,0.0461 17.99166,0.41577 0.34988,0.34988 0.41578,1.24308 0.41578,5.63562 0,3.70711 -0.092,5.31187 -0.3175,5.53736 -0.24061,0.2406 -4.59787,0.3175 -17.99167,0.3175 h -17.67416 v 3.70416 3.70417 h 17.67416 c 13.3938,0 17.75106,0.0769 17.99167,0.3175 0.2255,0.2255 0.3175,1.83111 0.3175,5.54125 0,5.09813 -0.0141,5.23365 -0.58804,5.63562 -0.51775,0.36265 -2.66824,0.41188 -17.99167,0.41188 h -17.40362 v 3.57187 3.57188 h 17.57589 c 15.62531,0 17.62203,0.0461 17.99166,0.41577 0.34988,0.34988 0.41578,1.24309 0.41578,5.63563 0,3.7071 -0.092,5.31186 -0.3175,5.53735 -0.24066,0.24065 -4.62727,0.3175 -18.12396,0.3175 h -17.80646 v 3.39748 3.39748 l 1.52136,0.33439 c 2.32198,0.51038 4.90559,1.98424 6.466,3.68864 4.5413,4.96037 4.41488,12.51324 -0.28781,17.19435 -3.26069,3.24573 -7.5304,4.40746 -11.95436,3.25261 z m -40.98894,-6.75475 c -1.99179,-0.44735 -3.22811,-1.08819 -4.76482,-2.46982 -2.72563,-2.45059 -3.85122,-6.58067 -2.71001,-9.94377 0.28545,-0.84119 0.44695,-1.57085 0.35889,-1.62147 -0.0881,-0.0506 -2.89854,-1.68409 -6.24552,-3.62994 l -6.08541,-3.53791 -21.431248,-0.14991 c -24.510593,-0.17144 -22.917878,-0.0295 -30.627577,-2.72914 -9.070625,-3.17618 -14.04367,-5.78492 -21.230756,-11.13718 -7.178417,-5.3458 -12.545417,-11.0193 -17.60958,-18.61522 -16.190637,-24.28494 -16.137287,-55.62703 0.136977,-80.47793 3.935326,-6.00926 9.931769,-12.61918 15.355936,-16.92695 9.013243,-7.15814 20.075596,-12.13608 31.617708,-14.22763 3.543353,-0.64209 4.412565,-0.69602 11.377083,-0.7058 8.447979,-0.0119 11.016692,0.28996 17.961217,2.11049 16.42928,4.30699 30.98124,14.61096 40.25283,28.50228 11.30029,16.93086 14.10464,37.53785 7.74914,56.94241 -6.97803,21.30522 -24.07261,37.56977 -45.04042,42.85346 -18.239521,4.59619 -37.310021,0.62544 -52.855281,-11.00524 -3.31724,-2.4819 -8.954762,-8.10509 -11.373321,-11.34441 -6.32582,-8.47255 -10.279833,-18.17429 -11.483626,-28.17673 -0.43308,-3.5985 -0.364821,-10.4458 0.141836,-14.22813 1.434524,-10.7091 6.067239,-21.1928 13.075157,-29.58869 10.536116,-12.62287 26.624873,-19.88872 42.49851,-19.19276 24.061335,1.05493 43.765005,17.3193 48.340365,39.90251 0.5284,2.60808 0.60561,3.75704 0.59266,8.81957 -0.0169,6.6135 -0.36308,8.85017 -2.24424,14.5008 -5.70142,17.12594 -20.41654,28.82622 -37.39347,29.73227 -6.997403,0.37345 -14.743348,-1.52925 -21.151193,-5.19554 -14.198844,-8.12396 -20.384212,-24.68964 -14.082046,-37.71461 2.811735,-5.81115 7.814,-10.22865 12.740865,-11.25146 7.063419,-1.46636 13.228515,3.51749 16.058644,12.98177 0.067,0.22407 2.876447,1.99152 6.243209,3.92768 l 6.121381,3.52029 1.040096,-0.93966 c 4.801094,-4.3375 12.344124,-2.80662 15.442774,3.13416 0.7762,1.48815 0.83041,1.7727 0.83248,4.36992 0.002,2.45146 -0.0798,2.95298 -0.695,4.26509 -2.2514,4.80156 -7.92143,6.91449 -12.78351,4.76376 -5.028118,-2.22417 -7.366897,-8.38641 -5.079344,-13.38309 0.389575,-0.85094 0.676841,-1.57317 0.638365,-1.60494 -0.242845,-0.20056 -10.839151,-6.24881 -11.170332,-6.3759 -0.36263,-0.13915 -0.408996,0.64188 -0.408996,6.88937 v 7.04631 l 0.72363,0.27513 c 2.821504,1.07273 4.73683,2.75128 5.949011,5.21356 0.806252,1.63773 0.867984,1.9521 0.867984,4.42009 0,2.469 -0.06152,2.78192 -0.869619,4.42341 -3.581223,7.27449 -13.940327,7.11701 -17.57698,-0.26722 -0.806243,-1.63708 -0.867984,-1.95139 -0.867984,-4.4186 0,-2.46676 0.06189,-2.78196 0.867984,-4.42077 1.446797,-2.94135 4.009295,-4.79829 7.400245,-5.36264 l 1.124479,-0.18715 v -7.07907 c 0,-6.41494 -0.05017,-7.22491 -0.534818,-8.63355 -2.075627,-6.03292 -5.732087,-9.84043 -9.927166,-10.33728 -4.583711,-0.54287 -10.237343,3.31291 -13.43559,9.16308 -3.517558,6.43424 -3.5386,14.76652 -0.05566,22.03963 3.596762,7.51078 10.84126,13.60251 19.56939,16.45544 9.167871,2.99668 18.655101,2.26759 27.534881,-2.11604 14.30292,-7.06083 23.48627,-22.99375 22.79798,-39.55403 -0.69976,-16.83654 -10.66898,-31.67437 -26.50214,-39.44488 -17.505549,-8.59127 -38.340709,-6.17754 -53.578126,6.20696 -9.83419,7.99293 -16.689198,19.62898 -19.226256,32.63566 -0.645187,3.30766 -0.711921,4.22035 -0.721142,9.86267 -0.01106,6.76955 0.198475,8.5112 1.714946,14.25438 5.580571,21.13475 24.127617,37.60624 46.807451,41.56934 4.184981,0.73129 11.927171,1.00099 15.876815,0.55308 7.099292,-0.8051 13.258162,-2.5668 19.525102,-5.58503 6.47122,-3.11661 11.6956,-6.83463 16.74688,-11.91821 9.80634,-9.86904 16.26741,-23.02641 18.11484,-36.88918 0.66241,-4.97069 0.61293,-12.38583 -0.11487,-17.21433 -2.40492,-15.95495 -10.80997,-30.42414 -23.66265,-40.73499 -9.66576,-7.7542 -21.06146,-12.57714 -34.182992,-14.4671 -3.605387,-0.5193 -13.563174,-0.44039 -17.330208,0.13733 -15.214039,2.33326 -28.57524,9.19836 -39.034756,20.0564 -16.779992,17.41932 -23.692802,42.21905 -18.244402,65.45186 4.06608,17.33841 15.230084,33.17025 30.385702,43.09041 6.519458,4.26734 10.183103,6.01056 18.691373,8.89369 5.445458,1.84525 5.465971,1.84672 28.569261,2.03754 l 20.842592,0.17214 6.62741,-3.81327 6.62741,-3.81327 -0.17865,-0.79404 c -0.0983,-0.43672 -0.16881,-1.63864 -0.15679,-2.67093 0.0571,-4.90029 4.10246,-8.98052 9.23006,-9.30959 4.54114,-0.29143 8.50195,2.23012 10.09068,6.42398 0.79046,2.08662 0.67635,5.11987 -0.27095,7.20259 -0.91775,2.01775 -2.97452,4.0471 -5.11418,5.04598 -1.31597,0.61435 -1.86239,0.71056 -4.0356,0.71056 -2.1732,0 -2.71963,-0.0962 -4.03559,-0.71056 -1.72837,-0.80687 -4.21882,-3.02759 -4.70112,-4.19196 -0.17782,-0.42931 -0.43514,-0.78056 -0.57181,-0.78056 -0.28562,0 -11.29702,6.2806 -11.78253,6.72042 -0.24132,0.21863 1.26101,1.20444 6.03847,3.96236 l 6.35972,3.67132 0.8407,-0.80871 c 2.01047,-1.93396 5.45034,-2.93968 8.33587,-2.43719 3.51158,0.61152 6.0138,2.53264 7.53629,5.78613 0.70582,1.50829 0.81709,2.04316 0.81709,3.92761 0,2.01871 -0.078,2.33431 -1.04511,4.22822 -0.76601,1.50012 -1.40943,2.34247 -2.40938,3.15435 -2.38983,1.94033 -5.71149,2.76575 -8.5576,2.12652 z M 284.52297,167.48185 c -0.44773,-0.37674 -0.81405,-0.85809 -0.81405,-1.06967 0,-0.21158 -0.56554,-0.99053 -1.25677,-1.731 l -1.25677,-1.34631 -0.13229,1.68837 -0.13229,1.68838 -1.25677,0.0806 -1.25677,0.0806 v -3.98324 -3.98325 h -0.78669 -0.78666 l -0.0732,3.90261 -0.0732,3.9026 -1.25677,0.0806 -1.25678,0.0806 v -3.98324 -3.98325 h -0.78667 -0.78668 l -0.0732,3.90261 -0.0732,3.9026 -1.25677,0.0806 -1.25677,0.0806 v -3.98324 -3.98325 h -0.78668 -0.78667 l -0.0732,3.90261 -0.0732,3.9026 -1.25677,0.0806 -1.25677,0.0806 v -3.98324 -3.98325 h -0.79375 -0.79375 v 3.96875 3.96875 h -1.32292 -1.32292 v -3.96875 -3.96875 h -0.79375 -0.79375 v 3.96875 3.96875 h -1.32291 -1.32292 v -3.96875 -3.96875 h -0.72916 c -0.55694,0 -0.81278,0.18891 -1.08319,0.79981 -0.73811,1.6675 -3.00695,2.09451 -4.29342,0.80804 -1.6695,-1.6695 -0.57632,-4.57118 1.72215,-4.57118 1.19389,0 2.24593,0.66917 2.62314,1.66853 0.24855,0.65849 0.42898,0.76563 1.28932,0.76563 h 1.00033 v 3.96875 3.96875 h 0.79375 0.79375 v -3.96875 -3.96875 h 1.32291 1.32292 v 3.96875 3.96875 h 0.79375 0.79375 v -3.96875 -3.96875 h 1.32292 1.32291 v 3.96875 3.96875 h 0.79375 0.79375 v -3.96875 -3.96875 h 1.32292 1.32292 v 3.96875 3.96875 h 0.79375 0.79375 v -3.96875 -3.96875 h 1.32291 1.32292 v 3.96875 3.96875 h 0.79375 0.79375 v -3.96875 -3.96875 h 1.32292 1.32291 v 3.96875 3.96875 h 0.79375 0.79375 v -1.87756 -1.87757 l 1.42619,-1.62816 c 0.78441,-0.89549 1.61356,-2.07893 1.84256,-2.62987 0.83579,-2.01072 3.55444,-2.21952 4.68825,-0.36008 0.76785,1.25929 0.65524,2.19517 -0.38991,3.24033 -0.68263,0.68262 -1.1244,0.89958 -1.83179,0.89958 -1.036,0 -2.5603,-1.07134 -2.5603,-1.79951 0,-0.27987 -0.46114,0.0247 -1.32334,0.87389 l -1.32334,1.30345 1.23534,1.2542 1.23534,1.2542 0.35822,-0.69046 c 0.19701,-0.37975 0.56404,-0.84677 0.81561,-1.03782 0.5497,-0.41748 2.27774,-0.4706 2.98558,-0.0918 0.59878,0.32045 1.30826,1.5937 1.30826,2.34782 0,2.26178 -2.71759,3.46741 -4.47762,1.98644 z m -2.57543,-30.68569 c -0.5248,-0.52481 -0.64452,-0.85139 -0.52716,-1.43818 0.13711,-0.68555 0.0341,-0.82501 -1.06209,-1.43767 -1.15413,-0.64506 -1.4116,-0.67848 -5.22606,-0.67848 -4.59814,0 -6.16568,-0.30876 -8.92256,-1.75745 -2.20962,-1.16113 -5.06848,-4.07427 -6.11272,-6.2288 -2.81052,-5.79878 -1.748,-12.44494 2.70077,-16.89371 5.49931,-5.49932 13.88038,-5.58951 19.48293,-0.20966 5.49156,5.27328 5.47074,13.822 -0.0462,18.98286 -2.75246,2.57478 -5.71209,3.64573 -9.3634,3.38816 -4.94427,-0.34879 -9.19233,-3.58402 -10.75672,-8.1921 -0.60502,-1.78215 -0.612,-4.87813 -0.0155,-6.87182 0.94666,-3.16394 4.11659,-6.50135 6.98984,-7.35914 5.19258,-1.5502 10.51297,0.76224 12.72497,5.53074 1.00976,2.17678 0.98081,5.07141 -0.0738,7.38491 -0.95835,2.10224 -3.01421,4.05569 -4.94239,4.69612 -1.75151,0.58176 -4.43101,0.42116 -5.95471,-0.35691 -3.64812,-1.86287 -4.86154,-6.45295 -2.36568,-8.94881 1.58536,-1.58536 3.06123,-1.44461 4.31187,0.41123 0.45799,0.6796 0.60127,1.26741 0.60127,2.46673 0,1.42196 0.08,1.64926 0.82602,2.34613 0.70389,0.65752 0.80082,0.89764 0.65555,1.62396 -0.2143,1.07152 -0.60485,1.46461 -1.66601,1.67684 -1.76182,0.35236 -2.91382,-2.03594 -1.58445,-3.28483 0.3368,-0.31641 0.75352,-0.57529 0.92604,-0.57529 0.46602,0 0.40042,-3.03353 -0.0859,-3.97404 -0.83198,-1.60888 -2.1654,-1.72527 -3.57831,-0.31236 -3.2002,3.20019 0.0431,8.78432 5.10192,8.78432 3.30402,0 5.56991,-1.3922 7.07809,-4.34891 0.8328,-1.63268 0.92602,-2.03122 0.92583,-3.95879 -1.8e-4,-1.77156 -0.12322,-2.40587 -0.70937,-3.65685 -0.87601,-1.86959 -2.66391,-3.64441 -4.65701,-4.62295 -1.35123,-0.66339 -1.79481,-0.74261 -4.15841,-0.74265 -2.31696,-5e-5 -2.83388,0.0881 -4.15874,0.70904 -4.25505,1.99434 -6.88175,6.92823 -6.10441,11.46629 0.97737,5.70583 5.7148,9.65274 11.58607,9.65274 5.5291,0 10.40508,-3.88447 11.74626,-9.35771 0.43566,-1.7779 0.39404,-5.06158 -0.0842,-6.64958 -1.63285,-5.42125 -7.06726,-9.39271 -12.85264,-9.39271 -3.67453,0 -6.62909,1.27762 -9.41712,4.07221 -7.64372,7.6617 -4.38563,20.14188 6.14982,23.55698 1.09893,0.35622 2.21359,0.42654 5.75504,0.36307 2.41568,-0.0433 4.39199,-0.0113 4.39178,0.071 -1.9e-4,0.0823 0.47259,0.41553 1.05066,0.74041 0.94535,0.53131 1.15911,0.55832 2.12603,0.26863 0.96123,-0.288 1.15102,-0.26557 1.79324,0.2119 1.04603,0.77766 1.12699,2.20995 0.16759,2.96462 -0.94817,0.74581 -1.8406,0.70581 -2.66592,-0.11949 z m 0.22,-4.96045 c -1.17779,-1.2537 -0.33396,-3.0918 1.41941,-3.0918 1.79184,0 2.63353,1.93405 1.36168,3.12888 -0.81344,0.76418 -2.04375,0.74778 -2.78109,-0.0371 z m -1.8982,0.23411 c 0,-0.0728 0.23813,-0.25973 0.52917,-0.41549 0.29104,-0.15576 0.52916,-0.22367 0.52916,-0.15091 0,0.0728 -0.23812,0.25973 -0.52916,0.41549 -0.29104,0.15576 -0.52917,0.22367 -0.52917,0.15091 z m -4.24492,-9.95208 c -0.40461,-0.40462 -0.52574,-0.83094 -0.4811,-1.69331 0.0561,-1.08455 0.11977,-1.17239 1.07858,-1.48882 0.91604,-0.30233 1.09149,-0.28232 1.73786,0.19824 0.95134,0.70726 1.11993,2.19763 0.33716,2.9804 -0.70067,0.70067 -1.97366,0.70233 -2.6725,0.003 z m -1.98836,-3.57488 c -0.49319,-0.39513 -0.48995,-0.40002 0.0817,-0.12299 0.32742,0.15867 0.59531,0.34383 0.59531,0.41147 0,0.20247 -0.13721,0.144 -0.67703,-0.28848 z"
       id="path6156"
       inkscape:connector-curvature="0" />
  </g>
</svg>
