<?xml version="1.0" encoding="UTF-8" standalone="no"?>
<!-- Created with Inkscape (http://www.inkscape.org/) -->

<svg
   xmlns:dc="http://purl.org/dc/elements/1.1/"
   xmlns:cc="http://creativecommons.org/ns#"
   xmlns:rdf="http://www.w3.org/1999/02/22-rdf-syntax-ns#"
   xmlns:svg="http://www.w3.org/2000/svg"
   xmlns="http://www.w3.org/2000/svg"
   xmlns:sodipodi="http://sodipodi.sourceforge.net/DTD/sodipodi-0.dtd"
   xmlns:inkscape="http://www.inkscape.org/namespaces/inkscape"
   width="210mm"
   height="297mm"
   viewBox="0 0 210 297"
   version="1.1"
   id="svg6232"
   sodipodi:docname="microfluidics 4a.svg"
   inkscape:version="0.92.3 (2405546, 2018-03-11)">
  <defs
     id="defs6226" />
  <sodipodi:namedview
     id="base"
     pagecolor="#ffffff"
     bordercolor="#666666"
     borderopacity="1.0"
     inkscape:pageopacity="0.0"
     inkscape:pageshadow="2"
     inkscape:zoom="0.98994949"
     inkscape:cx="522.76432"
     inkscape:cy="738.5091"
     inkscape:document-units="mm"
     inkscape:current-layer="layer1"
     showgrid="false"
     inkscape:window-width="1920"
     inkscape:window-height="1001"
     inkscape:window-x="-9"
     inkscape:window-y="-9"
     inkscape:window-maximized="1"
     inkscape:measure-start="557.835,976.507"
     inkscape:measure-end="558.359,976.507"
     inkscape:lockguides="true" />
  <metadata
     id="metadata6229">
    <rdf:RDF>
      <cc:Work
         rdf:about="">
        <dc:format>image/svg+xml</dc:format>
        <dc:type
           rdf:resource="http://purl.org/dc/dcmitype/StillImage" />
        <dc:title></dc:title>
      </cc:Work>
    </rdf:RDF>
  </metadata>
  <g
     inkscape:label="Layer 1"
     inkscape:groupmode="layer"
     id="layer1">
    <path
       style="fill:none;stroke:#000000;stroke-width:1.31433618;stroke-linecap:round;stroke-linejoin:round;stroke-miterlimit:1.70000005;stroke-dasharray:none;stroke-opacity:1"
       d="m 9.8641586,118.83432 v 9.88532 H 15.095094 V 108.949 h 5.271601 v 19.77064 h 5.230933 V 108.949 h 5.271601 v 19.77064 h 5.230933 V 108.949 h 5.271598 v 19.77064 h 5.230939 V 108.949 h 5.271596 v 19.77064 h 5.230939 V 108.949 h 5.271596 v 19.77064 h 5.230937 L 67.537487,108.949 v 0 0 l 7.599768,-0.1304"
       id="path5270-4-0-1"
       inkscape:connector-curvature="0"
       sodipodi:nodetypes="ccccccccccccccccccccccccccc" />
    <path
       style="fill:none;stroke:#000000;stroke-width:0.61951298;stroke-linecap:round;stroke-linejoin:round;stroke-miterlimit:1.70000005;stroke-dasharray:none;stroke-opacity:1"
       d="m 9.5167177,144.80272 v 4.65946 h 2.4656043 v -9.31891 h 2.484771 v 9.31891 h 2.465602 v -9.31891 h 2.484773 v 9.31891 h 2.465603 v -9.31891 h 2.48477 v 9.31891 h 2.465606 v -9.31891 h 2.484769 v 9.31891 h 2.465606 v -9.31891 h 2.484769 v 9.31891 h 2.465605 l -0.03312,-9.31891 v 0 0 l 3.582154,-0.0615"
       id="path5270-4-0-1-2"
       inkscape:connector-curvature="0"
       sodipodi:nodetypes="ccccccccccccccccccccccccccc" />
    <path
       style="fill:none;stroke:#000000;stroke-width:0.30975559;stroke-linecap:round;stroke-linejoin:round;stroke-miterlimit:1.70000005;stroke-dasharray:none;stroke-opacity:1"
       d="m 9.4428666,161.3343 v 2.32972 h 1.2327994 v -4.65944 h 1.242381 v 4.65944 h 1.232797 v -4.65944 h 1.242382 v 4.65944 h 1.232798 v -4.65944 h 1.242382 v 4.65944 h 1.2328 v -4.65944 h 1.242381 v 4.65944 h 1.232799 v -4.65944 h 1.242381 v 4.65944 h 1.232799 l -0.01656,-4.65944 v 0 0 l 1.791072,-0.0307"
       id="path5270-4-0-1-2-5"
       inkscape:connector-curvature="0"
       sodipodi:nodetypes="ccccccccccccccccccccccccccc" />
    <path
       style="fill:none;stroke:#000000;stroke-width:0.12390223;stroke-linecap:round;stroke-linejoin:round;stroke-miterlimit:1.70000005;stroke-dasharray:none;stroke-opacity:1"
       d="m 10.483859,173.03042 v 0.93189 h 0.493118 v -1.86378 h 0.496953 v 1.86378 h 0.493119 v -1.86378 h 0.496953 v 1.86378 h 0.493119 v -1.86378 h 0.496953 v 1.86378 h 0.493121 v -1.86378 h 0.496951 v 1.86378 h 0.49312 v -1.86378 h 0.496952 v 1.86378 h 0.49312 l -0.0066,-1.86378 v 0 0 l 0.716429,-0.0123"
       id="path5270-4-0-1-2-9"
       inkscape:connector-curvature="0"
       sodipodi:nodetypes="ccccccccccccccccccccccccccc" />
    <path
       style="fill:#000000;stroke-width:0.0597187"
       d="m 98.600608,146.3332 c 0.70971,-0.19113 1.28575,-0.61193 1.690602,-1.23495 0.31723,-0.48821 0.43584,-0.97877 0.40533,-1.6764 -0.0222,-0.50511 -0.0484,-0.6138 -0.24435,-1.01033 -0.38041,-0.7697 -1.055222,-1.32119 -1.859442,-1.51966 l -0.39437,-0.0973 v -0.92098 c 0,-0.52066 -0.0269,-0.9712 -0.0618,-1.0365 -0.0601,-0.11245 -0.16859,-0.1155 -4.090725,-0.1155 h -4.02891 v -0.80621 -0.80621 h 3.99688 c 3.553905,0 4.007285,-0.0104 4.090735,-0.0938 0.0788,-0.0788 0.0938,-0.27791 0.0938,-1.24268 0,-0.8254 -0.0209,-1.17725 -0.0746,-1.24978 -0.0686,-0.0928 -0.3985,-0.10217 -4.075795,-0.11592 l -4.00114,-0.015 -0.0166,-0.79128 -0.0166,-0.79126 h 3.97302 c 3.893385,0 3.975405,-0.002 4.092455,-0.11944 0.11108,-0.11105 0.11946,-0.19905 0.11946,-1.25409 0,-1.05503 -0.008,-1.14304 -0.11946,-1.25409 -0.11703,-0.11704 -0.19907,-0.11945 -4.090725,-0.11945 h -3.9713 v -0.80621 -0.80619 h 4.02892 c 3.922135,0 4.030535,-0.003 4.090715,-0.11551 0.0363,-0.068 0.0618,-0.58212 0.0618,-1.24983 0,-0.95158 -0.0151,-1.14943 -0.0938,-1.22816 -0.0835,-0.0834 -0.53682,-0.0938 -4.090725,-0.0938 h -3.9969 v -0.80621 -0.8062 h 3.9919 c 3.791445,0 3.996865,-0.006 4.090725,-0.10921 0.0847,-0.0935 0.0988,-0.27178 0.0988,-1.24268 0,-0.81312 -0.0211,-1.162 -0.0746,-1.23443 -0.0687,-0.0928 -0.39851,-0.10217 -4.075795,-0.11592 l -4.00115,-0.015 v -0.8062 -0.80621 l 4.00115,-0.015 c 3.677285,-0.0138 4.007185,-0.0231 4.075795,-0.11591 0.0537,-0.0725 0.0746,-0.42338 0.0746,-1.2448 0,-1.0323 -0.0108,-1.15348 -0.10919,-1.24268 -0.0993,-0.0899 -0.46969,-0.0988 -4.090735,-0.0988 h -3.98153 v -0.80621 -0.80621 h 1.96623 1.96622 l 1.6317,-1.55268 c 1.26592,-1.20462 1.666105,-1.55269 1.785215,-1.55269 0.51444,0 1.37282,-0.42587 1.80986,-0.89792 1.526082,-1.64835 0.6084,-4.29259 -1.61974,-4.66716 -1.834625,-0.30843 -3.481965,1.33037 -3.195785,3.17922 0.16666,1.07672 0.8912,1.90116 2.01636,2.29436 0.10392,0.0363 0.0519,0.10503 -0.40061,0.52944 -0.28603,0.26824 -0.88559,0.83518 -1.33235,1.2599 l -0.8123,0.7722 -1.22063,-1.21955 c -0.67135,-0.67074 -1.22064,-1.2378 -1.22064,-1.26013 0,-0.0223 0.0873,-0.0597 0.1941,-0.0831 0.65623,-0.14385 1.49416,-0.82888 1.79394,-1.46659 0.81238,-1.7282 -0.21224,-3.68962 -2.09254,-4.00572 -1.49648,-0.25158 -2.93416,0.79601 -3.19127,2.32534 -0.24497,1.45727 0.76207,2.89769 2.2275,3.18608 0.33219,0.0654 0.34624,0.0771 1.61188,1.34376 l 1.27678,1.2778 h -1.77272 c -1.76419,0 -1.77317,5.7e-4 -1.86569,0.13273 -0.13817,0.19727 -0.13742,2.32248 6.6e-4,2.46078 0.0834,0.0834 0.53683,0.0938 4.09074,0.0938 h 3.996865 v 0.80496 0.80497 l -4.005975,0.0162 c -3.88673,0.0157 -4.00852,0.0196 -4.09073,0.13208 -0.11487,0.15714 -0.12365,2.28692 -0.009,2.44053 0.0686,0.0928 0.39851,0.10218 4.0758,0.11592 l 4.001145,0.015 0.0166,0.82114 0.0166,0.82113 h -3.998585 c -3.55543,0 -4.00896,0.0104 -4.09241,0.0938 -0.1383,0.1383 -0.13905,2.2635 -6.6e-4,2.46077 l 0.093,0.13272 h 3.99778 3.997765 v 0.8062 0.80621 h -3.971295 c -3.89167,0 -3.97368,0.002 -4.09074,0.11943 -0.11094,0.11098 -0.11946,0.19907 -0.11946,1.24268 0,0.80493 0.0211,1.15185 0.0746,1.2242 0.0686,0.0928 0.39851,0.10218 4.0758,0.11592 l 4.001145,0.0149 v 0.8062 0.8062 l -4.001145,0.015 c -3.67729,0.0138 -4.00719,0.0231 -4.0758,0.11592 -0.0535,0.0724 -0.0746,0.41927 -0.0746,1.2242 0,1.04362 0.008,1.13171 0.11946,1.24268 0.11703,0.11704 0.19907,0.11945 4.09074,0.11945 h 3.971295 v 0.8062 0.8062 h -3.997765 -3.99777 l -0.093,0.13273 c -0.13818,0.19728 -0.13742,2.32248 6.6e-4,2.46077 0.0834,0.0834 0.53683,0.0939 4.09074,0.0939 h 3.996875 v 0.77211 0.77211 l -0.32662,0.0678 c -1.410845,0.29289 -2.401185,1.72313 -2.181535,3.15054 0.24941,1.62074 1.90117,2.72816 3.447865,2.31162 z"
       id="path6865-3"
       inkscape:connector-curvature="0"
       sodipodi:nodetypes="ccccccscscccscscccccscscscccscscscccscscccccccscscccccssscccccccscccccccsccsccccccccccscccccccscscccccccscscccccccsccccccc" />
    <path
       style="fill:#000000;stroke-width:0.05109527"
       d="m 130.53767,142.50335 c -1.04714,-0.2468 -1.69258,-1.34562 -1.39389,-2.37307 0.0836,-0.28763 0.0833,-0.30282 -0.007,-0.36884 -0.0516,-0.0379 -0.59966,-0.36091 -1.21791,-0.71787 l -1.1241,-0.64901 -4.18981,-0.0293 c -4.06002,-0.0284 -4.20326,-0.0327 -4.62411,-0.13867 -0.85811,-0.21601 -2.24114,-0.72313 -2.98906,-1.09599 -3.36253,-1.67635 -5.96193,-4.5593 -7.20644,-7.99252 -0.3077,-0.84888 -0.55407,-1.8189 -0.69406,-2.7327 -0.13562,-0.88533 -0.16328,-2.803 -0.0525,-3.64593 0.29701,-2.2615 1.08476,-4.38703 2.30396,-6.21669 0.60982,-0.91513 1.02805,-1.42707 1.79028,-2.1914 2.11492,-2.12075 4.66329,-3.39952 7.70094,-3.86432 0.79258,-0.12127 2.74493,-0.12056 3.54116,0.001 3.78061,0.5786 6.90431,2.4077 9.07602,5.31451 1.83967,2.46236 2.74627,5.61533 2.47043,8.59164 -0.2803,3.02454 -1.51105,5.73585 -3.56399,7.85144 -1.95202,2.01157 -4.36639,3.24284 -7.11384,3.62788 -0.79263,0.11108 -2.54114,0.0839 -3.34674,-0.0521 -2.17139,-0.36648 -4.11257,-1.23311 -5.77374,-2.57768 -0.56591,-0.45806 -1.51636,-1.44735 -1.94868,-2.02832 -2.23571,-3.00444 -2.83421,-6.76063 -1.63397,-10.25467 1.33033,-3.87276 4.56925,-6.62329 8.4688,-7.19183 0.70972,-0.10347 2.08741,-0.10347 2.79712,0 2.91466,0.42494 5.47623,2.04958 7.03023,4.45881 0.55766,0.86457 1.04163,2.08141 1.25604,3.15806 0.14191,0.71254 0.18803,1.92318 0.10164,2.66751 -0.078,0.6724 -0.34327,1.72634 -0.58332,2.318 -1.02887,2.53592 -3.1024,4.41281 -5.54984,5.02355 -0.79615,0.19866 -1.27022,0.24604 -2.14091,0.21397 -1.45794,-0.0537 -2.65435,-0.44213 -3.87323,-1.25742 -2.79141,-1.86715 -3.61097,-5.44396 -1.79657,-7.84079 0.52591,-0.69474 1.36059,-1.23826 2.09068,-1.3614 1.1845,-0.19979 2.25361,0.5878 2.80962,2.0698 0.0844,0.22482 0.17252,0.44325 0.19595,0.48541 0.0403,0.0724 2.23225,1.37217 2.32265,1.3772 0.0234,0.001 0.13833,-0.0753 0.25548,-0.1703 0.43388,-0.35177 0.6165,-0.41439 1.20933,-0.41467 0.47584,-2.2e-4 0.56964,0.0153 0.82957,0.13709 0.37389,0.17523 0.74468,0.54603 0.93631,0.9363 0.13724,0.27953 0.1502,0.3522 0.1502,0.84242 0,0.49176 -0.0125,0.56112 -0.1495,0.83171 -0.28609,0.56495 -0.87614,0.97497 -1.49638,1.03979 -0.79967,0.0836 -1.5888,-0.38046 -1.94714,-1.14502 -0.11992,-0.25586 -0.13694,-0.35568 -0.13694,-0.80323 0,-0.45299 0.0158,-0.54291 0.13867,-0.79127 0.0763,-0.15411 0.12226,-0.29589 0.10219,-0.31506 -0.0391,-0.0374 -1.83351,-1.07838 -2.06751,-1.19943 l -0.14052,-0.0727 0.001,0.78052 10e-4,0.78051 0.25158,0.17063 c 0.29736,0.20168 0.46865,0.41418 0.65589,0.8137 0.11886,0.25361 0.13734,0.35838 0.13734,0.77846 0,0.41884 -0.0186,0.52517 -0.13593,0.77538 -0.19031,0.40598 -0.50428,0.72667 -0.90417,0.92354 -0.305,0.15014 -0.38148,0.16605 -0.79824,0.16605 -0.41032,0 -0.4974,-0.0174 -0.79305,-0.15872 -0.39806,-0.19024 -0.75173,-0.5365 -0.95239,-0.93244 -0.13323,-0.26289 -0.14616,-0.33588 -0.14616,-0.82491 0,-0.47465 0.0157,-0.57005 0.13643,-0.82756 0.17428,-0.37181 0.53017,-0.72739 0.90098,-0.90018 0.22781,-0.10616 0.38821,-0.13969 0.73815,-0.15429 l 0.44708,-0.0187 v -0.7013 c 0,-0.60242 -0.017,-0.75119 -0.12038,-1.05514 -0.15713,-0.4619 -0.332,-0.80214 -0.58605,-1.14025 -0.26101,-0.34737 -0.49066,-0.53652 -0.85254,-0.70219 -0.24897,-0.11398 -0.34124,-0.12879 -0.705,-0.11318 -0.56636,0.0243 -1.04955,0.251 -1.55857,0.73119 -1.40171,1.3223 -1.70672,3.40559 -0.77829,5.31587 1.28114,2.63598 4.60805,4.05684 7.64898,3.26674 2.11727,-0.55012 3.89482,-2.02577 4.91985,-4.08426 1.22626,-2.46262 1.2159,-5.19271 -0.029,-7.63624 -1.73172,-3.39921 -5.57657,-5.43371 -9.46107,-5.00635 -4.12925,0.45429 -7.5956,3.58932 -8.63989,7.81408 -0.76996,3.11494 -0.10745,6.32319 1.84484,8.93374 0.20291,0.27134 0.657,0.78284 1.00907,1.13667 2.66216,2.67545 6.47304,3.87937 10.16768,3.21216 4.77643,-0.86258 8.60878,-4.77665 9.52828,-9.73145 0.20773,-1.11941 0.25034,-2.65936 0.10463,-3.78104 -0.28655,-2.20574 -1.19587,-4.31958 -2.61558,-6.08034 -0.53202,-0.65978 -1.58795,-1.68511 -2.24027,-2.17533 -4.72042,-3.5474 -11.02808,-3.56919 -15.68421,-0.0542 -2.3046,1.7398 -4.0886,4.37048 -4.90445,7.23209 -0.59399,2.08342 -0.66606,4.46518 -0.19881,6.5705 0.4507,2.03076 1.37145,3.942 2.70768,5.62048 0.43736,0.54938 1.54749,1.65894 2.11456,2.11348 1.3678,1.09637 2.75755,1.83943 4.64906,2.4857 1.14081,0.38978 0.93343,0.37497 5.52658,0.39483 l 4.12086,0.0178 1.25061,-0.72151 1.2506,-0.72151 -0.0494,-0.21323 c -0.13813,-0.5967 0.0934,-1.29387 0.57889,-1.74338 0.40274,-0.37286 0.75102,-0.50616 1.32254,-0.50616 0.60601,0 0.94612,0.13772 1.35849,0.55009 0.4032,0.4032 0.5481,0.75271 0.55261,1.33295 0.003,0.35611 -0.0176,0.45285 -0.15812,0.75113 -0.32106,0.68145 -0.88554,1.06504 -1.62439,1.10382 -0.82791,0.0435 -1.35935,-0.24188 -1.86584,-1.00179 l -0.0766,-0.11499 -1.16615,0.67209 c -0.64137,0.36965 -1.14721,0.68967 -1.12409,0.71116 0.0632,0.0588 2.35741,1.3786 2.39632,1.3786 0.0185,0 0.11617,-0.0724 0.21696,-0.16089 0.10078,-0.0885 0.31075,-0.2207 0.4666,-0.2938 0.24603,-0.11539 0.35069,-0.1329 0.79431,-0.1329 0.45602,0 0.54546,0.0159 0.83194,0.14822 1.08183,0.49958 1.44367,1.88138 0.7372,2.8153 -0.4617,0.61035 -1.28138,0.90974 -2.01643,0.7365 z"
       id="path7441-7"
       inkscape:connector-curvature="0" />
    <path
       style="fill:#000000;stroke-width:0.04332972"
       d="m 119.61174,73.767195 c -0.66433,-0.21714 -1.05231,-0.73808 -1.05231,-1.41297 0,-0.66837 0.38858,-1.19928 1.03172,-1.40964 l 0.22485,-0.0735 v -4.42558 -4.42558 l -3.31028,-3.31007 -3.31028,-3.31006 -0.14881,0.092 c -0.22876,0.14138 -0.65889,0.23694 -0.9198,0.20434 -0.48666,-0.0608 -0.92743,-0.3718 -1.14552,-0.80824 -0.17068,-0.34155 -0.2057,-0.64212 -0.11611,-0.99636 0.12381,-0.48955 0.45447,-0.85954 0.92782,-1.03818 0.3097,-0.11687 0.7914,-0.10165 1.09783,0.0347 0.28389,0.12633 0.57604,0.41077 0.71727,0.69836 0.10563,0.2151 0.12003,0.29386 0.11993,0.65608 0,0.42127 -0.0711,0.64942 -0.27353,0.87953 -0.0643,0.0731 0.13279,0.27929 3.20052,3.34722 1.79799,1.79811 3.28558,3.26929 3.30579,3.26929 0.0202,0 1.48503,-1.44462 3.25519,-3.21026 l 3.21845,-3.21027 -0.14228,-0.23628 c -0.4766,-0.79148 -0.17944,-1.7426 0.66529,-2.12933 0.53702,-0.24585 1.21738,-0.10278 1.63516,0.34387 0.30379,0.32477 0.38777,0.54437 0.38671,1.01122 -8.8e-4,0.36032 -0.0121,0.4108 -0.1485,0.66385 -0.17958,0.3332 -0.45214,0.58193 -0.76662,0.69959 -0.40841,0.15281 -0.99677,0.0984 -1.30435,-0.12062 l -0.12514,-0.0891 -3.27938,3.2796 -3.27939,3.27959 v 4.42481 4.42483 l 0.17901,0.0286 c 0.6001,0.096 1.10453,0.60615 1.19977,1.21344 0.13708,0.87416 -0.49292,1.65311 -1.3747,1.69975 -0.16729,0.009 -0.36141,-0.01 -0.46831,-0.0446 z m 30.12342,-4.60027 c -0.0476,-0.0109 -0.19389,-0.0414 -0.32496,-0.0675 -0.5608,-0.11197 -1.23452,-0.53901 -1.58413,-1.00412 -0.44354,-0.59004 -0.5995,-1.04688 -0.60218,-1.76388 -0.002,-0.43505 0.014,-0.54661 0.12294,-0.87901 0.30728,-0.93748 1.08063,-1.65958 2.01993,-1.88607 l 0.3028,-0.073 v -3.9702 c 0,-3.55026 0.007,-3.97615 0.0682,-4.02651 0.22529,-0.18697 0.25258,-0.54537 0.0628,-0.8252 l -0.12928,-0.19067 v -5.19145 c 0,-5.09603 0.002,-5.19455 0.0859,-5.36033 0.11097,-0.21754 0.11069,-0.49983 0,-0.6825 -0.0853,-0.13947 -0.0869,-0.22105 -0.0869,-4.82332 v -4.68146 l 0.11914,-0.15622 c 0.0976,-0.12786 0.11916,-0.2007 0.11916,-0.40128 0,-0.20058 -0.0216,-0.27342 -0.11916,-0.40128 l -0.11914,-0.15623 v -1.96479 -1.9648 l -0.30592,-0.0788 c -0.81095,-0.2089 -1.48215,-0.75058 -1.86167,-1.50242 -0.21259,-0.42114 -0.27666,-0.70958 -0.2787,-1.2544 -0.002,-0.43506 0.014,-0.54661 0.12293,-0.87901 0.40271,-1.2286 1.56929,-2.03718 2.84148,-1.96946 1.21593,0.0647 2.18119,0.7967 2.5855,1.96062 0.10529,0.30316 0.12035,0.4109 0.12094,0.86618 0,0.56865 -0.0591,0.84435 -0.27716,1.27625 -0.44713,0.88576 -1.19811,1.41058 -2.26498,1.58287 l -0.16247,0.0262 v 1.56079 1.5608 l -0.11039,0.14474 c -0.19352,0.25371 -0.1817,0.63848 0.0254,0.82587 0.0835,0.0756 0.085,0.16494 0.085,5.23149 0,4.72564 -0.006,5.17166 -0.0731,5.36036 -0.0686,0.1931 -0.0686,0.21765 0,0.39723 0.0678,0.17752 0.0731,0.89754 0.0731,9.92197 v 9.73056 l 0.30889,0.051 c 1.08146,0.1786 1.90973,0.88263 2.27479,1.9336 0.10529,0.30316 0.12035,0.41089 0.12095,0.86618 0,0.56865 -0.0591,0.84434 -0.27717,1.27625 -0.37283,0.7386 -1.04454,1.28917 -1.83088,1.50069 -0.23828,0.0641 -0.90181,0.11474 -1.05155,0.0803 z M 31.166505,67.003565 c -1.302674,-0.29588 -2.231774,-1.4523 -2.22845,-2.77367 0.0021,-0.82971 0.252015,-1.43147 0.837236,-2.01582 0.421647,-0.421 0.813344,-0.64633 1.33393,-0.76733 l 0.314142,-0.073 v -8.58103 -8.58102 l -6.420417,-6.42053 -6.420418,-6.42052 -0.1886,0.12975 c -0.475794,0.32736 -0.920708,0.44993 -1.616014,0.44518 -0.466522,-0.003 -0.585687,-0.0193 -0.85944,-0.1161 -1.644722,-0.58167 -2.415842,-2.42103 -1.657324,-3.9532 0.496867,-1.00364 1.448398,-1.59733 2.560094,-1.59733 0.808036,0 1.416069,0.25406 1.998095,0.8349 0.303508,0.30289 0.406222,0.44127 0.549848,0.74077 0.455663,0.9502 0.388766,1.99448 -0.182852,2.85431 -0.113102,0.17013 -0.199182,0.32618 -0.191286,0.34677 0.008,0.0206 2.807539,2.82065 6.221439,6.22233 l 6.207095,6.1849 -0.01094,-8.43736 -0.01094,-8.43736 -0.308827,-0.0784 c -1.283343,-0.32591 -2.155108,-1.447 -2.155108,-2.77148 0,-0.78752 0.258115,-1.41214 0.816443,-1.97576 0.594279,-0.5999 1.207678,-0.86096 2.015793,-0.85789 0.807632,0.003 1.462503,0.26929 2.01134,0.81769 0.540926,0.5405 0.79524,1.10853 0.836451,1.86828 0.04655,0.85846 -0.221654,1.55777 -0.83009,2.16425 -0.436106,0.43471 -0.882125,0.67098 -1.486765,0.78758 l -0.400657,0.0773 -1.47e-4,8.42323 -1.41e-4,8.42323 6.141989,-6.12583 c 3.378093,-3.3692 6.147956,-6.13927 6.155249,-6.1557 0.0072,-0.0165 -0.05908,-0.12408 -0.147469,-0.23924 -0.359598,-0.46842 -0.552156,-1.06545 -0.549664,-1.70424 0.0032,-0.78175 0.27734,-1.43747 0.834283,-1.99441 0.558115,-0.55812 1.214885,-0.83242 1.994405,-0.83297 0.64106,-4.9e-4 1.09276,0.13724 1.63083,0.49713 1.18511,0.79265 1.57184,2.38313 0.89638,3.68649 -0.23613,0.45562 -0.74941,0.95834 -1.21488,1.18989 -0.90857,0.45195 -1.93608,0.41203 -2.80112,-0.10882 l -0.253898,-0.15288 -6.343055,6.34294 -6.34305,6.34294 v 8.56654 8.56655 l 0.162484,0.0259 c 0.741067,0.11788 1.265024,0.36841 1.718865,0.82189 0.540926,0.54049 0.79524,1.10853 0.836451,1.86828 0.0177,0.32595 0.0047,0.52217 -0.05047,0.7707 -0.216962,0.97522 -0.956694,1.78239 -1.930732,2.10677 -0.36885,0.12284 -1.078539,0.15448 -1.470091,0.0655 z m 33.295773,-0.96793 c -0.98306,-0.25422 -1.71562,-0.93047 -2.03269,-1.87644 -0.54676,-1.63128 0.5089,-3.40312 2.20152,-3.69506 l 0.29881,-0.0515 0.27713,-0.43116 c 0.52507,-0.8169 0.71298,-1.34725 0.64726,-1.82678 -0.0395,-0.28821 -0.77849,-2.38361 -1.34758,-3.82107 -0.69508,-1.7557 -0.72806,-1.85913 -0.67226,-2.10816 0.0645,-0.2876 0.18473,-0.50099 0.38367,-0.68071 0.32759,-0.29596 0.68676,-0.31023 1.04266,-0.0414 0.12785,0.0966 0.14402,0.10051 0.11596,0.0283 -0.018,-0.0462 -0.10739,-0.29843 -0.19881,-0.56057 -0.0914,-0.26214 -0.34558,-0.92509 -0.56482,-1.47321 -0.67488,-1.68718 -0.79228,-2.01904 -0.79075,-2.23534 0.002,-0.35368 0.28336,-0.8203 0.58885,-0.97828 0.21795,-0.1127 0.52191,-0.0878 0.76387,0.0626 l 0.20977,0.13041 -0.16284,-0.48288 c -0.0896,-0.26558 -0.29384,-0.8046 -0.45397,-1.19781 -0.68845,-1.69062 -0.94596,-2.40082 -0.94507,-2.60648 0.002,-0.38048 0.31981,-0.87974 0.64873,-1.01796 0.26225,-0.1102 0.59747,-0.0413 0.83101,0.17096 0.099,0.0899 0.10315,0.0904 0.0727,0.009 -0.0178,-0.0477 -0.14698,-0.42891 -0.28709,-0.84723 -0.14012,-0.41831 -0.43289,-1.20799 -0.6506,-1.75485 -0.67549,-1.69671 -0.68797,-1.74742 -0.53206,-2.16169 0.23098,-0.61379 0.79631,-0.85483 1.28218,-0.5467 l 0.20092,0.12742 -0.17091,-0.49566 c -0.094,-0.27262 -0.34844,-0.93929 -0.56542,-1.48148 -0.49314,-1.2323 -0.77693,-1.98295 -0.82079,-2.17105 -0.0459,-0.1969 0.056,-0.57098 0.22076,-0.81048 0.16754,-0.24352 0.44526,-0.40907 0.68621,-0.40907 0.17494,0 0.48999,0.12453 0.54654,0.21603 0.0149,0.0242 0.0449,0.0439 0.0665,0.0439 0.0429,0 -0.30234,-1.00949 -0.52058,-1.52201 -0.20015,-0.47005 -0.30265,-0.87661 -0.33262,-1.31934 -0.044,-0.65076 0.10054,-1.13227 0.56415,-1.8786 0.11001,-0.17709 0.19497,-0.32702 0.18882,-0.33317 -0.006,-0.006 -0.15631,-0.0415 -0.33367,-0.0784 -1.33544,-0.27845 -2.26755,-1.42852 -2.26755,-2.79779 0,-0.80546 0.2553,-1.41476 0.83558,-1.99416 0.5917,-0.59081 1.18925,-0.83913 2.01637,-0.83794 0.78362,0.001 1.44588,0.27277 1.98968,0.81614 0.54506,0.54463 0.80352,1.12093 0.83871,1.87015 0.0407,0.86569 -0.22557,1.55656 -0.83479,2.16617 -0.28035,0.28053 -0.42754,0.38876 -0.72362,0.53207 -0.20443,0.099 -0.51487,0.20977 -0.68987,0.24625 -0.17499,0.0365 -0.31861,0.07 -0.31915,0.0745 -0.004,0.0325 -0.28516,0.53957 -0.43718,0.78814 -0.27145,0.44385 -0.36539,0.76219 -0.36539,1.23816 0,0.36222 0.10796,0.99423 0.16958,0.99268 0.014,-3.2e-4 0.0742,-0.10154 0.13372,-0.22488 0.19215,-0.39775 0.66363,-0.63651 1.06032,-0.53694 0.28362,0.0712 0.64734,0.56409 0.70006,0.9487 0.0277,0.20219 -0.0997,0.57766 -0.73063,2.15356 -0.24726,0.61757 -0.81309,2.14346 -0.81309,2.19268 0,0.007 0.11211,-0.0467 0.24914,-0.11912 0.20846,-0.11013 0.28063,-0.12738 0.44197,-0.10565 0.23547,0.0317 0.43788,0.16374 0.6034,0.39356 0.13596,0.18876 0.26535,0.52658 0.26535,0.69276 0,0.12026 -0.24002,0.77824 -0.75889,2.08035 -0.37082,0.93059 -0.84431,2.23494 -0.84431,2.32588 0,0.0279 0.0439,0.0106 0.0975,-0.0385 0.29515,-0.26987 0.71578,-0.303 1.00885,-0.0795 0.21116,0.16105 0.39455,0.45796 0.45799,0.74144 0.0485,0.21656 0.0432,0.25417 -0.0891,0.63357 -0.0774,0.22185 -0.33539,0.89082 -0.57341,1.4866 -0.23803,0.59578 -0.51692,1.32698 -0.61976,1.62487 -0.10285,0.29789 -0.20075,0.57581 -0.21754,0.6176 -0.0244,0.0607 0.0207,0.0489 0.22328,-0.0581 0.20342,-0.10746 0.29063,-0.13005 0.43899,-0.11369 0.37588,0.0415 0.74342,0.43793 0.84211,0.90847 0.0588,0.28007 0.0614,0.27152 -0.62737,2.00379 -0.36017,0.90579 -0.89817,2.36159 -0.89817,2.43036 0,0.0105 0.0785,-0.0329 0.17438,-0.0964 0.23931,-0.15837 0.53462,-0.18375 0.76578,-0.0658 0.30794,0.15709 0.5494,0.52757 0.6019,0.92351 0.0266,0.20081 -0.10695,0.58514 -0.84729,2.43777 -0.24121,0.60361 -0.69477,1.84958 -0.69477,1.9086 0,0.005 0.11211,-0.0474 0.24914,-0.11718 0.1952,-0.0993 0.28919,-0.12247 0.43409,-0.10686 0.3779,0.0407 0.73452,0.417 0.83938,0.88557 0.0626,0.27978 0.0686,0.259 -0.48837,1.68171 l -0.3401,0.86868 0.0638,0.30123 c 0.0832,0.39262 0.0826,1.01829 -0.001,1.34015 -0.0961,0.36895 -0.20654,0.59916 -0.50498,1.05263 -0.1454,0.22094 -0.25665,0.40669 -0.24722,0.41279 0.009,0.006 0.15365,0.0448 0.32046,0.0861 0.83794,0.20715 1.49747,0.7403 1.88765,1.5259 0.76184,1.53394 -0.0139,3.38396 -1.65649,3.9504 -0.43276,0.14923 -1.13658,0.17836 -1.57438,0.0651 z m 1.77879,-10.17208 c 0.13718,-0.34188 0.23604,-0.65534 0.23604,-0.74842 0,-0.37767 -0.34311,-0.60064 -0.63249,-0.41103 -0.10223,0.067 -0.27256,0.35036 -0.33827,0.56276 -0.0407,0.13152 0.40648,1.34968 0.4602,1.25368 0.0212,-0.0378 0.14468,-0.33344 0.27452,-0.65699 z m -1.09179,-2.45877 c 0.1107,-0.30578 0.20126,-0.58419 0.20126,-0.61868 0,-0.11977 -0.25494,-0.56694 -0.36395,-0.63836 -0.0603,-0.0395 -0.16541,-0.0718 -0.23359,-0.0718 -0.1859,0 -0.39905,0.26382 -0.39905,0.49393 0,0.14114 0.52642,1.46811 0.56496,1.42413 0.016,-0.0183 0.11968,-0.2834 0.23037,-0.58919 z m 1.06434,-2.60168 c 0.14492,-0.3664 0.26342,-0.732 0.26333,-0.81243 -4.9e-4,-0.19535 -0.13499,-0.4061 -0.29546,-0.46204 -0.21448,-0.0748 -0.39079,0.0479 -0.56593,0.39363 l -0.14661,0.28945 0.22804,0.62879 c 0.12543,0.34584 0.23369,0.62879 0.24059,0.62879 0.007,0 0.13111,-0.29979 0.27604,-0.66619 z m -1.05615,-2.52858 0.20545,-0.57332 -0.0782,-0.20662 c -0.0956,-0.2525 -0.36036,-0.53158 -0.50441,-0.53158 -0.2089,0 -0.42637,0.26583 -0.42637,0.52119 0,0.13518 0.52697,1.43931 0.56516,1.39866 0.0181,-0.0193 0.12535,-0.293 0.23836,-0.60833 z m 1.10346,-2.68185 c 0.1189,-0.30282 0.21618,-0.621 0.21618,-0.70706 0,-0.15451 -0.0843,-0.32077 -0.21466,-0.42352 -0.20341,-0.16029 -0.53531,0.0486 -0.69251,0.43595 l -0.0939,0.2313 0.21888,0.60119 c 0.12038,0.33065 0.21966,0.6116 0.22061,0.62435 0.004,0.0578 0.1471,-0.25724 0.34537,-0.76221 z m -1.11285,-2.36996 c 0.11136,-0.30555 0.20246,-0.58285 0.20246,-0.61621 0,-0.12792 -0.2105,-0.52863 -0.32503,-0.61872 -0.15804,-0.12432 -0.37044,-0.12294 -0.48526,0.003 -0.12119,0.13303 -0.18612,0.26735 -0.18719,0.38712 -0.001,0.12981 0.52996,1.47513 0.56555,1.43255 0.0149,-0.0178 0.11812,-0.28232 0.22947,-0.58788 z m 1.06772,-2.6102 c 0.28108,-0.69842 0.30882,-0.87212 0.17447,-1.09247 -0.21258,-0.34866 -0.53561,-0.25889 -0.77361,0.21497 l -0.14551,0.28971 0.22813,0.63147 c 0.12548,0.34731 0.23441,0.6252 0.24208,0.61753 0.008,-0.008 0.13117,-0.30521 0.27444,-0.66121 z m -1.06511,-2.62087 c 0.10992,-0.29904 0.19966,-0.57202 0.19942,-0.60661 -0.001,-0.12998 -0.20902,-0.50409 -0.34334,-0.61712 -0.15957,-0.13427 -0.28648,-0.14802 -0.4311,-0.0468 -0.11009,0.0771 -0.22172,0.30535 -0.22172,0.45333 0,0.13884 0.52441,1.43918 0.5634,1.39704 0.0184,-0.0199 0.12342,-0.28086 0.23334,-0.57991 z m 1.11024,-2.71145 c 0.25901,-0.65966 0.27145,-0.81685 0.0817,-1.03296 -0.17185,-0.19571 -0.32636,-0.20242 -0.53064,-0.0231 -0.0815,0.0716 -0.19042,0.23419 -0.24205,0.3614 l -0.0939,0.2313 0.21888,0.60119 c 0.12037,0.33065 0.21965,0.6116 0.22061,0.62435 0.004,0.0578 0.14709,-0.25724 0.34536,-0.76221 z m -1.08443,-2.45671 c 0.16904,-0.46602 0.18142,-0.52708 0.13694,-0.67556 -0.069,-0.23025 -0.22049,-0.43974 -0.38932,-0.53834 -0.13421,-0.0784 -0.1545,-0.0796 -0.28552,-0.0171 -0.17438,0.0832 -0.30326,0.33362 -0.27171,0.52803 0.0124,0.076 0.136,0.42397 0.27483,0.77329 0.29031,0.73047 0.242,0.73682 0.53478,-0.0703 z m 1.05689,-2.57134 c 0.13405,-0.33763 0.24372,-0.67495 0.24372,-0.74959 0,-0.26655 -0.20918,-0.52138 -0.42798,-0.52138 -0.13867,0 -0.39334,0.27303 -0.49582,0.53158 l -0.0789,0.19897 0.19436,0.53382 c 0.26013,0.71442 0.25209,0.69617 0.2887,0.65588 0.0177,-0.0195 0.14184,-0.31165 0.27589,-0.64928 z m 24.6585,35.42593 c -1.24895,-0.20934 -2.2643,-1.15832 -2.55396,-2.38703 -0.0936,-0.39687 -0.0847,-1.07548 0.0193,-1.48227 0.24893,-0.97331 1.00619,-1.80785 1.9545,-2.15394 0.19356,-0.0707 0.46798,-0.14056 0.60981,-0.15539 0.23317,-0.0244 0.26443,-0.0399 0.32625,-0.16138 0.0376,-0.0739 0.20515,-0.34507 0.37232,-0.60253 0.3953,-0.6088 0.51286,-0.92741 0.53872,-1.46005 l 0.02,-0.41164 -0.47561,-1.36488 c -0.26157,-0.75069 -0.63557,-1.76461 -0.83112,-2.25315 -0.51833,-1.29503 -0.90166,-2.31439 -0.93191,-2.47819 -0.0443,-0.23979 0.121,-0.6848 0.34824,-0.93755 0.34758,-0.38658 0.7294,-0.44823 1.15141,-0.18589 0.1165,0.0724 0.21182,0.1249 0.21182,0.11661 0,-0.0657 -0.41767,-1.20394 -0.70067,-1.90953 -0.86058,-2.14559 -1.00346,-2.54432 -1.00151,-2.79477 0.005,-0.57852 0.51452,-1.1699 1.00891,-1.1699 0.174,0 0.46881,0.11941 0.61745,0.25008 0.0417,0.0367 0.0758,0.0579 0.0758,0.0471 0,-0.0864 -0.43701,-1.26371 -0.92257,-2.48531 -0.83668,-2.105 -0.83469,-2.09889 -0.77227,-2.3778 0.14112,-0.63057 0.62079,-1.07445 1.0927,-1.01115 0.0982,0.0131 0.27616,0.0846 0.39551,0.15884 0.11935,0.0742 0.20808,0.10988 0.19719,0.0793 -0.0109,-0.0306 -0.12431,-0.36757 -0.252,-0.74887 -0.1277,-0.38131 -0.45997,-1.27823 -0.73838,-1.99317 -0.73817,-1.89558 -0.75333,-1.94393 -0.69328,-2.21224 0.13934,-0.62267 0.62173,-1.06633 1.09096,-1.00339 0.0982,0.0131 0.27382,0.0832 0.39032,0.15562 0.1165,0.0724 0.21182,0.1249 0.21182,0.11661 0,-0.0631 -0.40999,-1.17889 -0.69753,-1.89829 -0.87889,-2.19903 -1.00661,-2.55574 -1.00465,-2.80601 0.005,-0.57156 0.51602,-1.17173 0.99635,-1.16895 0.17264,0.001 0.49943,0.129 0.62923,0.24646 0.0421,0.0381 0.0766,0.0582 0.0766,0.0446 0,-0.0644 -0.45852,-1.34851 -0.58555,-1.63983 -0.43209,-0.99086 -0.50537,-1.87598 -0.22033,-2.66125 0.054,-0.1489 0.22955,-0.48937 0.39001,-0.75658 0.16046,-0.26721 0.28555,-0.48952 0.27798,-0.49402 -0.008,-0.005 -0.1795,-0.0409 -0.38207,-0.0809 -0.24183,-0.0477 -0.50962,-0.14266 -0.77982,-0.27639 -0.34065,-0.16859 -0.47536,-0.26772 -0.78213,-0.57559 -0.30607,-0.30717 -0.40587,-0.44361 -0.57313,-0.78356 -0.27958,-0.56824 -0.34766,-0.89116 -0.32432,-1.53821 0.0151,-0.41915 0.0417,-0.58716 0.13703,-0.86659 0.25961,-0.7609 0.84225,-1.43957 1.54244,-1.79668 1.54627,-0.78863 3.47931,-0.14658 4.22374,1.40288 0.25819,0.53741 0.34356,0.95386 0.31528,1.53782 -0.0692,1.42778 -1.06126,2.59905 -2.45548,2.89898 l -0.35717,0.0768 -0.10785,0.21489 c -0.0593,0.11819 -0.21359,0.39055 -0.34283,0.60525 -0.36794,0.61119 -0.4285,0.81373 -0.42741,1.42949 10e-4,0.50452 0.10269,1.06158 0.19398,1.06158 0.0188,0 0.0558,-0.0654 0.0822,-0.14535 0.11615,-0.35194 0.61187,-0.72125 0.96812,-0.72125 0.45856,0 0.93176,0.50962 1.0091,1.08676 0.0302,0.22577 -0.0585,0.48832 -0.79701,2.35796 -0.26356,0.66728 -0.57543,1.48869 -0.69302,1.82537 l -0.21382,0.61214 0.20616,-0.12816 c 0.11339,-0.0705 0.28649,-0.13892 0.38467,-0.15209 0.48714,-0.0653 1.02957,0.45943 1.11397,1.07771 0.0299,0.21882 -0.0943,0.58491 -0.80105,2.36135 -0.2385,0.59952 -0.54457,1.4087 -0.68016,1.79819 -0.13559,0.38948 -0.25666,0.73491 -0.26905,0.76762 -0.0124,0.0327 0.0785,-0.0101 0.20207,-0.095 0.42523,-0.29251 0.8288,-0.24867 1.17573,0.12771 0.21331,0.23142 0.34145,0.5009 0.37342,0.78532 0.0252,0.22362 -0.11209,0.61861 -0.88526,2.54823 -0.29363,0.73283 -0.78849,2.08829 -0.78849,2.15974 0,0.0116 0.10923,-0.0363 0.24272,-0.10655 0.396,-0.20831 0.71911,-0.15954 1.03487,0.15622 0.19097,0.19098 0.35797,0.53128 0.39398,0.80286 0.0306,0.23072 -0.0371,0.43217 -0.74549,2.22058 -0.27216,0.68705 -0.57072,1.46698 -0.66347,1.73319 -0.0927,0.26621 -0.19807,0.56516 -0.23402,0.66434 l -0.0654,0.18033 0.21316,-0.1325 c 0.28101,-0.17469 0.56869,-0.20518 0.80174,-0.0849 0.35605,0.18368 0.6376,0.5938 0.69467,1.01193 0.0296,0.217 -0.0997,0.60025 -0.76532,2.26791 -0.31078,0.77868 -0.95079,2.50307 -0.95079,2.56176 0,0.006 0.0994,-0.0564 0.221,-0.13823 0.50178,-0.33767 1.07837,-0.1138 1.38454,0.53756 0.0493,0.10486 0.0997,0.28095 0.11211,0.3913 0.0251,0.22327 -0.0254,0.37759 -0.60752,1.85953 l -0.32824,0.83563 0.0623,0.26928 c 0.15081,0.65224 0.11448,1.32333 -0.10257,1.89415 -0.0499,0.13107 -0.234,0.46166 -0.40923,0.73465 l -0.3186,0.49633 0.37567,0.095 c 1.07252,0.27112 1.86939,1.00982 2.23886,2.07544 0.10942,0.31557 0.1201,0.401 0.11922,0.95325 -8.9e-4,0.5402 -0.0136,0.64457 -0.11658,0.95325 -0.16328,0.48963 -0.39201,0.8586 -0.76776,1.23849 -0.73034,0.7384 -1.72128,1.06863 -2.70963,0.90297 z m 1.68572,-11.15763 c 0.15801,-0.3952 0.2873,-0.77734 0.2873,-0.84921 0,-0.16643 -0.11476,-0.40985 -0.23193,-0.49191 -0.23793,-0.16665 -0.53938,-0.008 -0.72345,0.38131 -0.0703,0.14857 -0.12803,0.29938 -0.12833,0.33512 -5.2e-4,0.0898 0.44909,1.34238 0.48227,1.34285 0.0148,1.6e-4 0.15613,-0.32296 0.31414,-0.71816 z m -1.0732,-3.72222 c -0.15586,-0.33732 -0.30827,-0.47222 -0.53399,-0.4726 -0.25575,-4.9e-4 -0.48717,0.3386 -0.42915,0.62871 0.0251,0.12557 0.31916,0.8955 0.50281,1.31656 l 0.0945,0.21665 0.25359,-0.6917 0.25358,-0.6917 z m 1.0732,-1.89155 c 0.15802,-0.39662 0.28723,-0.78658 0.28715,-0.8666 0,-0.17157 -0.12512,-0.39364 -0.27766,-0.49359 -0.14658,-0.0961 -0.32475,-0.0517 -0.49288,0.12263 -0.13299,0.13792 -0.31255,0.49663 -0.31255,0.62441 0,0.0367 0.086,0.30321 0.1912,0.59218 0.2592,0.71228 0.28555,0.77838 0.30265,0.75892 0.008,-0.009 0.14408,-0.34134 0.30209,-0.73795 z m -1.10642,-2.92546 0.17508,-0.4835 -0.14414,-0.30076 c -0.14825,-0.30934 -0.34337,-0.48709 -0.53468,-0.48709 -0.22664,0 -0.47989,0.38638 -0.4269,0.6513 0.0241,0.12062 0.32984,0.917 0.51057,1.33001 l 0.0905,0.20684 0.0772,-0.21665 c 0.0425,-0.11916 0.15602,-0.43422 0.25232,-0.70015 z m 1.10642,-2.66408 c 0.15802,-0.39661 0.28723,-0.78657 0.28715,-0.86659 0,-0.17158 -0.12512,-0.39365 -0.27766,-0.4936 -0.14658,-0.0961 -0.32475,-0.0517 -0.49288,0.12264 -0.13299,0.13792 -0.31255,0.49662 -0.31255,0.6244 0,0.0367 0.086,0.30321 0.1912,0.59219 0.2592,0.71228 0.28555,0.77837 0.30265,0.75892 0.008,-0.009 0.14408,-0.34135 0.30209,-0.73796 z m -1.16021,-2.76162 0.2283,-0.62297 -0.10755,-0.24318 c -0.24423,-0.55226 -0.60937,-0.70832 -0.867,-0.37055 -0.19623,0.25727 -0.18264,0.39646 0.11102,1.13709 0.31463,0.79355 0.35576,0.87753 0.38551,0.78746 0.0118,-0.0357 0.12415,-0.34521 0.24972,-0.68785 z m 1.21321,-2.95808 c 0.12886,-0.32522 0.2343,-0.65868 0.2343,-0.74103 0,-0.17917 -0.15262,-0.42226 -0.31377,-0.49976 -0.14712,-0.0708 -0.36365,0.01 -0.50349,0.18777 -0.11257,0.14311 -0.26598,0.47702 -0.26598,0.57893 0,0.0668 0.40926,1.22976 0.46388,1.31813 0.0281,0.0455 0.0619,-0.0285 0.38506,-0.84404 z m -1.21243,-2.76355 0.22907,-0.62509 -0.14209,-0.30754 c -0.15644,-0.33858 -0.30867,-0.47384 -0.53377,-0.47422 -0.16254,-3.3e-4 -0.30454,0.11273 -0.38726,0.30818 -0.0907,0.21425 -0.0752,0.30354 0.15336,0.88244 0.31593,0.80032 0.40123,0.98088 0.42815,0.9063 0.0129,-0.0358 0.12655,-0.34628 0.25254,-0.69007 z m 1.21261,-2.96085 c 0.12877,-0.32789 0.23412,-0.66136 0.23412,-0.74103 0,-0.17649 -0.15533,-0.41868 -0.31899,-0.49739 -0.14695,-0.0707 -0.30702,-0.0172 -0.47473,0.15872 -0.11769,0.12341 -0.28952,0.48514 -0.28952,0.60949 0,0.0617 0.19853,0.62965 0.43333,1.23971 l 0.05,0.12999 0.0658,-0.15166 c 0.0362,-0.0834 0.17117,-0.41993 0.29994,-0.74783 z m -1.16131,-2.78564 0.17336,-0.47873 -0.14004,-0.30234 c -0.14495,-0.31294 -0.2711,-0.4339 -0.50035,-0.47975 -0.10708,-0.0214 -0.15415,-4.9e-4 -0.27804,0.12336 -0.24397,0.24397 -0.24561,0.38667 -0.0115,1.00624 0.10966,0.29026 0.25124,0.64374 0.31463,0.7855 l 0.11526,0.25775 0.0767,-0.21666 c 0.0422,-0.11915 0.15469,-0.43207 0.25004,-0.69537 z m 1.10813,-2.66885 c 0.15802,-0.39661 0.28723,-0.78658 0.28715,-0.86659 0,-0.17158 -0.12512,-0.39365 -0.27766,-0.4936 -0.14658,-0.096 -0.32475,-0.0517 -0.49288,0.12263 -0.13299,0.13792 -0.31255,0.49664 -0.31255,0.62441 0,0.0367 0.086,0.30321 0.1912,0.59219 0.2592,0.71228 0.28555,0.77837 0.30265,0.75892 0.008,-0.009 0.14408,-0.34135 0.30209,-0.73796 z m 27.541692,14.11037 c -0.28051,-0.0916 -0.60667,-0.35729 -0.76723,-0.62511 -0.50218,-0.83761 -0.0947,-1.88075 0.84083,-2.15273 l 0.22695,-0.066 9e-4,-4.38418 8.9e-4,-4.38417 -3.28192,-3.28136 -3.28192,-3.28136 -0.28019,0.13967 c -0.25138,0.12531 -0.31817,0.13947 -0.64994,0.13776 -0.31941,-0.002 -0.40425,-0.0191 -0.62303,-0.1282 -0.31788,-0.15852 -0.60188,-0.4699 -0.72306,-0.79274 -0.12469,-0.33219 -0.10595,-0.84432 0.042,-1.1487 0.12999,-0.26738 0.41751,-0.55418 0.6826,-0.68089 0.30922,-0.14782 0.82171,-0.16754 1.14869,-0.0442 0.32315,0.12189 0.63436,0.40593 0.79274,0.72352 0.10898,0.21853 0.12657,0.30378 0.12821,0.62157 0.002,0.31604 -0.0149,0.40212 -0.11614,0.60662 -0.0649,0.13107 -0.14284,0.27246 -0.17315,0.3142 -0.049,0.0676 0.29022,0.42122 3.10769,3.2389 1.73953,1.73966 3.17728,3.163 3.19503,3.163 0.0177,0 0.0318,-1.93118 0.0313,-4.29152 -8.9e-4,-3.33438 -0.0129,-4.29561 -0.0537,-4.30982 -0.62596,-0.21687 -0.86705,-0.40055 -1.06882,-0.81432 -0.18364,-0.37659 -0.21047,-0.67963 -0.0941,-1.0628 0.31038,-1.02184 1.57328,-1.37486 2.35676,-0.65879 0.89265,0.81583 0.46689,2.30538 -0.71671,2.50741 l -0.1833,0.0313 -0.0108,4.29927 c -0.006,2.36461 0.003,4.29928 0.0216,4.29928 0.0178,0 1.43876,-1.40636 3.15777,-3.12526 l 3.12549,-3.12527 -0.12049,-0.17862 c -0.26984,-0.40006 -0.32329,-0.96295 -0.1324,-1.39447 0.11925,-0.2696 0.4499,-0.60456 0.73452,-0.7441 0.51638,-0.25317 1.25511,-0.11205 1.64874,0.31497 0.22059,0.23932 0.33878,0.47532 0.38231,0.76335 0.15267,1.0104 -0.66424,1.8318 -1.66561,1.67477 -0.13592,-0.0213 -0.3419,-0.0903 -0.45773,-0.15338 l -0.2106,-0.11462 -3.24697,3.24675 -3.24696,3.24675 8.9e-4,4.38217 8.8e-4,4.38217 0.18112,0.029 c 0.27335,0.0437 0.52429,0.17005 0.74873,0.37694 0.74998,0.6913 0.57942,1.89409 -0.33496,2.36215 -0.28219,0.14444 -0.80656,0.18251 -1.11724,0.0811 z"
       id="path2653"
       inkscape:connector-curvature="0" />
  </g>
</svg>
